<?xml version="1.0" encoding="UTF-8"?>
<svg id="_圖層_1" data-name="圖層 1" xmlns="http://www.w3.org/2000/svg" version="1.1" xmlns:xlink="http://www.w3.org/1999/xlink" viewBox="0 0 2048 3072">
  <defs>
    <style>
      .cls-1 {
        fill: #fb8d27;
      }

      .cls-1, .cls-2, .cls-3, .cls-4, .cls-5, .cls-6, .cls-7, .cls-8, .cls-9, .cls-10, .cls-11, .cls-12, .cls-13, .cls-14, .cls-15, .cls-16, .cls-17, .cls-18, .cls-19, .cls-20, .cls-21, .cls-22 {
        stroke-width: 0px;
      }

      .cls-2 {
        fill: url(#_未命名漸層_6);
      }

      .cls-3 {
        fill: url(#_未命名漸層_8);
      }

      .cls-4 {
        fill: #b30000;
      }

      .cls-5 {
        fill: #feca3e;
      }

      .cls-6 {
        fill: url(#_未命名漸層_9);
      }

      .cls-7 {
        fill: #fba02f;
      }

      .cls-8 {
        fill: #960101;
      }

      .cls-9 {
        fill: url(#_未命名漸層_18);
      }

      .cls-10 {
        fill: url(#_未命名漸層_5);
      }

      .cls-11 {
        fill: url(#_未命名漸層);
      }

      .cls-12 {
        fill: #6f0706;
      }

      .cls-13 {
        fill: url(#_未命名漸層_38);
      }

      .cls-14 {
        fill: url(#_未命名漸層_3);
      }

      .cls-15 {
        fill: url(#_未命名漸層_7);
      }

      .cls-16 {
        fill: url(#_未命名漸層_10);
      }

      .cls-17 {
        fill: url(#_未命名漸層_2);
      }

      .cls-18 {
        fill: #c60000;
      }

      .cls-19 {
        fill: #ea0502;
      }

      .cls-20 {
        fill: #191818;
      }

      .cls-21 {
        fill: url(#_未命名漸層_4);
      }

      .cls-22 {
        fill: #ffdc4f;
      }
    </style>
    <linearGradient id="_未命名漸層_2" data-name="未命名漸層 2" x1="1032.8" y1="1554.2" x2="980.3" y2="1556.2" gradientTransform="translate(-1008 4624) scale(2 -2)" gradientUnits="userSpaceOnUse">
      <stop offset="0" stop-color="#a60000"/>
      <stop offset="1" stop-color="#df0200"/>
    </linearGradient>
    <linearGradient id="_未命名漸層_3" data-name="未命名漸層 3" x1="1023" y1="1522.8" x2="1031.8" y2="1536" gradientTransform="translate(-1008 4624) scale(2 -2)" gradientUnits="userSpaceOnUse">
      <stop offset="0" stop-color="#fd9926"/>
      <stop offset="1" stop-color="#ffbe3d"/>
    </linearGradient>
    <linearGradient id="_未命名漸層_6" data-name="未命名漸層 6" x1="1010.2" y1="1407.6" x2="1047.3" y2="1409.4" gradientTransform="translate(-1008 4624) scale(2 -2)" gradientUnits="userSpaceOnUse">
      <stop offset="0" stop-color="#ad0000"/>
      <stop offset="1" stop-color="#f70200"/>
    </linearGradient>
    <linearGradient id="_未命名漸層_7" data-name="未命名漸層 7" x1="1023.6" y1="1396.3" x2="1033" y2="1407.1" gradientTransform="translate(-1008 4624) scale(2 -2)" gradientUnits="userSpaceOnUse">
      <stop offset="0" stop-color="#fe9527"/>
      <stop offset="1" stop-color="#ffb437"/>
    </linearGradient>
    <linearGradient id="_未命名漸層_8" data-name="未命名漸層 8" x1="899.4" y1="1665.8" x2="918" y2="1676" gradientTransform="translate(-1008 4624) scale(2 -2)" gradientUnits="userSpaceOnUse">
      <stop offset="0" stop-color="#ffca3f"/>
      <stop offset="1" stop-color="#ffe95b"/>
    </linearGradient>
    <linearGradient id="_未命名漸層_9" data-name="未命名漸層 9" x1="896" y1="1727.6" x2="918.3" y2="1736.9" gradientTransform="translate(-1008 4624) scale(2 -2)" gradientUnits="userSpaceOnUse">
      <stop offset="0" stop-color="#fdbd35"/>
      <stop offset="1" stop-color="#ffec5d"/>
    </linearGradient>
    <linearGradient id="_未命名漸層_10" data-name="未命名漸層 10" x1="1027.9" y1="1643.2" x2="1032.6" y2="1653" gradientTransform="translate(-1008 4624) scale(2 -2)" gradientUnits="userSpaceOnUse">
      <stop offset="0" stop-color="#fa9626"/>
      <stop offset="1" stop-color="#ffb138"/>
    </linearGradient>
    <linearGradient id="_未命名漸層_4" data-name="未命名漸層 4" x1="1023.3" y1="1159.5" x2="1043.7" y2="1160.2" gradientTransform="translate(-1008 4624) scale(2 -2)" gradientUnits="userSpaceOnUse">
      <stop offset="0" stop-color="#ffcc3a"/>
      <stop offset="1" stop-color="#fbef4c"/>
    </linearGradient>
    <linearGradient id="_未命名漸層_5" data-name="未命名漸層 5" x1="1002" y1="1335.3" x2="1010.5" y2="1335.5" gradientTransform="translate(-1008 4624) scale(2 -2)" gradientUnits="userSpaceOnUse">
      <stop offset="0" stop-color="#fd932d"/>
      <stop offset="1" stop-color="#ffac36"/>
    </linearGradient>
    <linearGradient id="_未命名漸層" data-name="未命名漸層" x1="1025.9" y1="1869.7" x2="1003.9" y2="2126.5" gradientTransform="translate(-1008 4624) scale(2 -2)" gradientUnits="userSpaceOnUse">
      <stop offset="0" stop-color="#be0100"/>
      <stop offset="1" stop-color="#ff0301"/>
    </linearGradient>
    <linearGradient id="_未命名漸層_18" data-name="未命名漸層 18" x1="1028.4" y1="418.1" x2="1017.6" y2="292.3" gradientUnits="userSpaceOnUse">
      <stop offset="0" stop-color="#be0100"/>
      <stop offset=".2" stop-color="#cf0100"/>
      <stop offset=".5" stop-color="#e90200"/>
      <stop offset=".8" stop-color="#f90200"/>
      <stop offset="1" stop-color="#ff0301"/>
    </linearGradient>
    <linearGradient id="_未命名漸層_38" data-name="未命名漸層 38" x1="991.6" y1="164.3" x2="1057.7" y2="163.1" gradientUnits="userSpaceOnUse">
      <stop offset="0" stop-color="#fa0301"/>
      <stop offset="0" stop-color="#f80200"/>
      <stop offset="0" stop-color="#e30200"/>
      <stop offset="0" stop-color="#d20100"/>
      <stop offset=".1" stop-color="#c60100"/>
      <stop offset=".2" stop-color="#bf0100"/>
      <stop offset=".4" stop-color="#be0100"/>
      <stop offset=".4" stop-color="#c30100"/>
      <stop offset=".4" stop-color="#d90100"/>
      <stop offset=".5" stop-color="#ea0200"/>
      <stop offset=".5" stop-color="#f60200"/>
      <stop offset=".5" stop-color="#fd0200"/>
      <stop offset=".6" stop-color="#ff0301"/>
    </linearGradient>
  </defs>
  <g id="body">
    <path class="cls-17" d="M1061.6,1149.1c10.7-10.8,22.9-12.6,36.5-6.8,2.5,2.5,3.8,3.8,6,6.5,5.3,3.6,13.3,8.5,18.1,12.4-24.4,3-30.7,9.6-47.6,27.5l-4.9,7.7c-5.7,9.9-8.2,20.2-10.2,32.3-.8.2-1.6.4-2.3.7l-1.5,3.1c-7.2-4.9-14.3-10.6-19.9-17.4-3.2-3.8-3.8-6.4-7.6-10-.5,4.1-1.1,8.2-1.7,12.2-2.2,15.4-4.1,23.1,0,38.1,2,13.2-1.1,41.2,2.3,51,1,5.6,1.5,6.4,0,11.8-6.8,26.6,13.6,44.3,31.3,60.6,6.4-3.2,14.7-6.6,21.4-9.5,6.8,6.3,12.4,10,14.5,18.9l2.8-.4c7.1,4.4,8.2,5.4,14,11.4,6.7,8.6,42.5,42.4,50.8,48.1,5.8,5.3,13.9,13,20.9,16.5,5.1,5.4,13.9,14.7,20,18.8l-.2.8c4.7,5,45.9,41.3,51.9,45.7,6.9,5.8,10.2,9,16.3,15.6,27.4,30.2-25.3,73.4-54.8,72.9-10.7-.2-13.3-7.2-21.3-10,12.9,14.8,45.5,41.1,61.8,55.3,5.6,3.9,13.6,10.2,18.3,15.1,29.3,26.7-39.5,96.9-79.7,62.1-3.7-3.1-9.5-9-13.2-12.6-4.8-5.7-12.9-15.8-20.1-17.7-6.2-3.4-50.4-50.1-55.8-57.4-4.1-6-9.2-9-15.5-12.2-21.9,7.1-26.9,9.9-42.9,27.2,2.9,3,9.8,10.9,13.4,11.4l-3.6,5.3c-7.9,10.6-12.2,20.6-14.4,33.7l-1.6,1.9-1.4-1.2c-5.7-4.9-9.7-12.3-13.7-18.8-3.1,21.5,8.2,51.5,29,59.7,3-.4,4.8-.5,7.8-1.4-5.4,4.1-12.1,9.5-17.8,12.8-.9-4.8-15.9-23.1-19.8-28.2-.8,15.3-1.1,29.9-1.3,45.2-5.2-13.5-.7-42.5-4.9-47.4l-5.4,2.4v3.7c-6.6,9.3-11.5,15.4-20.6,22.7,4.2,5.1,7.5,9.1,11.2,14.5-2.8,12.9-7.1,6.1-12.1,12.3l2.5,4.4c-2.9,6.7-4.7,12.1-10.1,17l-2.6-3c-9.5-11.6-14-14.8-27-22.3l-13.6-5.7-1.4.5c-2.7,4.3-4.4,7.9-8.5,10.8l-7.5,9.3c-4,4.9-18.4,22.4-22.7,25.4-3.9,4.5-24,29-26.7,31l-1.5-1.9-1.3.6c-4,4.3-9.5,10.5-13.7,14.4-37.4,32-114.8-32.3-81.1-64.7,6.1-6.8,12.1-11.1,19.7-16,13.8-16.9,39.7-37.2,51.3-54.3l-4.4-.2c-4.1-14.5,1.9-11.2-10.3-32.5,6.8-5,10-7.2,15.8-13.3-14.7-22.1-34.9-29-59.6-33.7,9.5-8.7,50.7-44,56.1-52.6l-.3-2.5c-2-12.4-3.7-16.7-9.5-27.9,3.1-3.9,12.5-8,17.2-10.4l-2.3-5.3-8-9.7c-15.6-15.2-28.6-24.4-50.8-26.6,18.1-16.1,36.3-32,54.5-47.9l-4.7.7c-37.6,27.5-100.5-44.5-71.1-70,6.2-5,14.2-10.2,20.9-14.7,16.4-16.5,41.8-33.3,55.2-50.6,1.3-2.4,2.2-2.6,4.6-4.3,19.8-11.8,66.9-59.7,77.2-64.1,5.5-4.4,10.8-9.8,17.7-10.3,1.6-4.6,10.4-10.7,15-15,8.5,1.6,16.7,4.8,24,9.5,2.8-2.2,5.5-4.4,8.2-6.7,16-13.9,20.2-22.5,21.6-43,8.3-9.9,7.4-32.3,10.2-44.3l.7,29.7c3.5-6.6,7.7-15.2,11.3-21.5,2.3-7.5,5-11,11.2-15.6h1.8c4.2-3.2,7.4-4.9,9.5-9.6ZM1033.8,1606c5.3,7.6,15.4,23.9,24.3,25.6,4.6-3.8,12.3-6.8,18-9.2-16.1-12.3-23.6-20.9-36.6-36.5-4.5-6.2-9.3-12.5-13.4-19,0,18.6-.7,22.1,7.7,39ZM967.2,1756.2c5.6,1,12.8,1.7,17.4,4.6,22.9-14.6,17.8-19.7,29.7-40,.9-7.2,1.2-10.6,1.1-17.8l-4.1-.2c1-1.1,2.1-1.8,2.3-2.9-5.1,3.2-6.4,7.9-10,13.1-6.2,8.9-15,19.7-23.1,26.9l-13.5,16.3ZM1074.7,1493.6c-4-5-24.9-22-32-29.5-5.9-7.3-10-12.7-15.1-20.5-1.7,22.9,5.2,47.3,27.4,58,4,0,3.9-.1,7.7-1.5,1.5-1.3,9.7-5.3,11.9-6.5ZM1015.6,1441c-4.9,6-11,15.2-15.7,21.7-9.9,12.1-21.6,19.3-31.1,29.9,6.7,2.8,10.9,4.2,16.6,8.8,25.7-12.1,31.3-34.6,30.2-60.3ZM969.7,1622c4.4,2,9.2,3.8,12.9,6.9,17.7,1.6,40-45.3,31.3-57.4-4.4,2.1-5.9,6.6-8.2,11.3-4.6,5.4-35.7,37.2-36,39.2ZM1048,1511.8c-9.4-7.8-14.9-15.6-21.8-25.7v60.6c2.9-6.9,4.9-12.5,9.7-18.3,2.4-6.1,7.7-11.9,12.1-16.6ZM1002.8,1524.1c7.1,9.8,8.8,14.5,13.2,25.7v-58.1c-6.9,7.7-12.9,14.9-21.6,20.7,4.2,4.6,5.4,5.9,8.4,11.6ZM1005.4,1654.8l9,12.6c1.9-7.7,1.4-40.4,1-49.1-2,2.6-20.2,23.1-20.2,23.4,5.4,4.8,6.4,6.9,10.2,13ZM1008.6,1405.5c2,4.8,1.9,7.4,5.7,9.5,3-7.2,2.7-44.7,1.1-50.2-7.9,8.5-12.3,13.1-22,19.6,5.2,6.9,10.3,13.9,15.1,21.1ZM968,1370.4c7.1,2.4,9.6,3.7,16.2,7.3,12.8-10.3,39.3-37.7,31.4-55.7-4.5.8-4.8,2.7-8.4,6.7-1.8,2-4,4.8-5.9,6.7-9.9,14.5-27.3,24.1-33.3,35ZM1026.9,1357.6c0,14.5-1,46.8.9,60.2,6.4-12.9,13.3-24.1,25-32.4-11.7-8-17.5-16.4-26-27.8ZM1026.6,1612.5c-.8,17.8-.6,41.5-.2,59.6,2.2-4.1,5-9.8,8-13.1,4.3-9.2,6.3-14,14.7-19.7-10.8-8.8-15-14.9-22.6-26.8ZM1015.4,1308.1c2.1-9.8,1.1-50.5.9-62.7-5.5,7.5-14.2,19.3-21.6,24.3,12,11.3,13.6,23.1,20.6,38.4Z"/>
    <path class="cls-4" d="M1026.6,1612.5c-1.6-2-1.2-3.4-1.2-6l2.4-1.8,6,1.4c5.3,7.6,15.4,23.9,24.3,25.6-2.7,3.9-4.2,6.4-8.9,7.6-10.8-8.8-15-14.9-22.6-26.8Z"/>
    <path class="cls-19" d="M969.7,1622c4.4,2,9.2,3.8,12.9,6.9,2.4,3.6,8.7,11.9,12.7,13,5.4,4.8,6.4,6.9,10.2,13-2.1,10.5-4.6,9.1-15,10.6l7,10c5.7,8.8,7.2,16.5,8.8,26.8-.8,5-.7,5.3-3.2,9.7l.8,1.2c-6.2,8.9-15,19.7-23.1,26.9l-13.5,16.3c5.6,1,12.8,1.7,17.4,4.6,4.1,4.8,4.6,5.4,10.3,8.1,4.2,5.1,7.5,9.1,11.2,14.5-2.8,12.9-7.1,6.1-12.1,12.3l2.5,4.4c-2.9,6.7-4.7,12.1-10.1,17l-2.6-3c-9.5-11.6-14-14.8-27-22.3l-13.6-5.7-1.4.5c-2.7,4.3-4.4,7.9-8.5,10.8l-7.5,9.3c-4,4.9-18.4,22.4-22.7,25.4-3.9,4.5-24,29-26.7,31l-1.5-1.9-1.3.6c-4,4.3-9.5,10.5-13.7,14.4-37.4,32-114.8-32.3-81.1-64.7,6.1-6.8,12.1-11.1,19.7-16,13.8-16.9,39.7-37.2,51.3-54.3,1.2-2.4,5.3-4.7,7.8-6.4,23-16.4,59.9-57,77.8-80,4.8-5.1,10.9-11.2,17.5-13.9,5.6-6.8,9.2-15.7,16.8-19Z"/>
    <path class="cls-18" d="M997.4,1675.4c5.7,8.8,7.2,16.5,8.8,26.8-.8,5-.7,5.3-3.2,9.7l.8,1.2c-6.2,8.9-15,19.7-23.1,26.9l-13.5,16.3c5.6,1,12.8,1.7,17.4,4.6,4.1,4.8,4.6,5.4,10.3,8.1,4.2,5.1,7.5,9.1,11.2,14.5-2.8,12.9-7.1,6.1-12.1,12.3l2.5,4.4c-2.9,6.7-4.7,12.1-10.1,17l-2.6-3c-9.5-11.6-14-14.8-27-22.3l-13.6-5.7-1.4.5c-2.7,4.3-4.4,7.9-8.5,10.8l-7.5,9.3c-4,4.9-18.4,22.4-22.7,25.4-3.9,4.5-24,29-26.7,31l-1.5-1.9-1.3.6c-.3-12.9-3.4-18.2-9.5-29.7,30.2-35.9,60.5-70.3,88.5-108.5,6.7-9.2,25.1-29.8,29.1-38.8l3.7,5.4c4.5-3.9,8.3-9.9,11.9-14.8Z"/>
    <path class="cls-19" d="M967.2,1756.2c5.6,1,12.8,1.7,17.4,4.6,4.1,4.8,4.6,5.4,10.3,8.1,4.2,5.1,7.5,9.1,11.2,14.5-2.8,12.9-7.1,6.1-12.1,12.3l2.5,4.4c-2.9,6.7-4.7,12.1-10.1,17l-2.6-3c-9.5-11.6-14-14.8-27-22.3,1.6-5.8,2.8-12.2,6.1-17.1l-6.6-1.5c4.4-3.8,9-11.5,10.8-17.1Z"/>
    <path class="cls-22" d="M963,1774.8c19.6,7.8,24.4,17.8,31.2,21l2.5,4.4c-2.9,6.7-4.7,12.1-10.1,17l-2.6-3c-9.5-11.6-14-14.8-27-22.3,1.6-5.8,2.8-12.2,6.1-17.1Z"/>
    <path class="cls-1" d="M997.4,1675.4c5.7,8.8,7.2,16.5,8.8,26.8-.8,5-.7,5.3-3.2,9.7-3.3,3.1-2.6,3.4-6.3,4.1-3.4-4.4-8.1-19-11.1-25.7,4.5-3.9,8.3-9.9,11.9-14.8Z"/>
    <path class="cls-8" d="M941.9,1786.7v-3.5c10.9-11.6,27.8-38.3,38.8-43.2l-13.5,16.3c-1.8,5.6-6.4,13.3-10.8,17.1l6.6,1.5c-3.3,5-4.6,11.3-6.1,17.1l-13.6-5.7-1.4.5Z"/>
    <path class="cls-5" d="M956.4,1773.3l6.6,1.5c-3.3,5-4.6,11.3-6.1,17.1l-13.6-5.7c5.2-6.7,6.4-7.8,13.1-12.9Z"/>
    <path class="cls-12" d="M874.9,1861.2c6.8-5.6,18.6-26.6,28.2-29-3.9,4.5-24,29-26.7,31l-1.5-1.9Z"/>
    <path class="cls-8" d="M925.8,1806.8c-2,1.5-3.9,2.5-6,3.8.6-5,8.4-11.5,13.6-13.1l-7.5,9.3Z"/>
    <path class="cls-19" d="M798.6,1795.5c9.4.8,14.8,1.4,23.9,4.4,18,6.4,25.9,14.2,38.5,28.4l3.2,3.8c6.1,11.5,9.1,16.8,9.5,29.7-4,4.3-9.5,10.5-13.7,14.4-37.4,32-114.8-32.3-81.1-64.7,6.1-6.8,12.1-11.1,19.7-16Z"/>
    <path class="cls-22" d="M822.5,1799.9c18,6.4,25.9,14.2,38.5,28.4-7.9,4.4-14,4.5-19,10.4-11.1-11.1-18.9-16.5-33.2-22.6,4-8.1,9.3-8.3,13.7-16.2Z"/>
    <path class="cls-7" d="M861,1828.3l3.2,3.8c6.1,11.5,9.1,16.8,9.5,29.7-4,4.3-9.5,10.5-13.7,14.4-1.6-2.7-1.5-6.4-2.3-9.5-3.6-13.7-6.6-17.7-15.7-28,5-5.9,11.1-6,19-10.4Z"/>
    <path class="cls-5" d="M798.6,1795.5c9.4.8,14.8,1.4,23.9,4.4-4.5,7.9-9.8,8.1-13.7,16.2-13.7-4.7-21.2-2-29.8-4.6,6.1-6.8,12.1-11.1,19.7-16Z"/>
    <path class="cls-22" d="M969.7,1622c4.4,2,9.2,3.8,12.9,6.9,2.4,3.6,8.7,11.9,12.7,13,5.4,4.8,6.4,6.9,10.2,13-2.1,10.5-4.6,9.1-15,10.6l7,10c-3.5,5-7.3,11-11.9,14.8l-3.7-5.4c-11.7-18.4-27.1-23.9-46.5-30,4.8-5.1,10.9-11.2,17.5-13.9,5.6-6.8,9.2-15.7,16.8-19Z"/>
    <path class="cls-19" d="M969.7,1622c4.4,2,9.2,3.8,12.9,6.9,2.4,3.6,8.7,11.9,12.7,13,5.4,4.8,6.4,6.9,10.2,13-2.1,10.5-4.6,9.1-15,10.6-13.1-13.4-20.2-18.3-37.6-24.4,5.6-6.8,9.2-15.7,16.8-19Z"/>
    <path class="cls-19" d="M1090.4,1513.1l6.8.3,10.7,9.6c7.2,8.8,14.4,15.4,22.7,23.2,4.6,6.2,47.9,48.4,53.2,49.8l12.2,10.9.7.5c12.9,14.8,45.5,41.1,61.8,55.3,5.6,3.9,13.6,10.2,18.3,15.1,29.3,26.7-39.5,96.9-79.7,62.1-3.7-3.1-9.5-9-13.2-12.6-4.8-5.7-12.9-15.8-20.1-17.7-6.2-3.4-50.4-50.1-55.8-57.4-4.1-6-9.2-9-15.5-12.2l-1-.5c-.3-1.3-.4-2.3-.4-3.7-6-7-7.2-8.2-14.8-13.4-16.1-12.3-23.6-20.9-36.6-36.5l1.2-2.3c-4.5-13.6-3.8-15.8-.3-29.6,4.1-6.6,7.6-10.7,12.6-16.6,12.3-12.8,20.8-18.5,37.4-24.3Z"/>
    <path class="cls-18" d="M1052.9,1537.4c.2,6.5-.7,4.2,3.1,9,4.7,2.2,5.3,2.7,10.3,2.6l-7.6,9.4c16.4,15.9,123.9,129.8,137.4,133.7-8,11.9-11.7,20.4-12.4,35.1-4.8-5.7-12.9-15.8-20.1-17.7-6.2-3.4-50.4-50.1-55.8-57.4-4.1-6-9.2-9-15.5-12.2l-1-.5c-.3-1.3-.4-2.3-.4-3.7-6-7-7.2-8.2-14.8-13.4-16.1-12.3-23.6-20.9-36.6-36.5l1.2-2.3c-4.5-13.6-3.8-15.8-.3-29.6,4.1-6.6,7.6-10.7,12.6-16.6Z"/>
    <path class="cls-14" d="M1052.9,1537.4c.2,6.5-.7,4.2,3.1,9,4.7,2.2,5.3,2.7,10.3,2.6l-7.6,9.4c-5.4,9.1-10.5,27.5-13.5,29.8-1.5-1.5-3.2-3-4.5-4.7-4.5-13.6-3.8-15.8-.3-29.6,4.1-6.6,7.6-10.7,12.6-16.6Z"/>
    <path class="cls-19" d="M1230,1666.5c12.7-5.2,15-6.5,28.4-3.8,5.6,3.9,13.6,10.2,18.3,15.1,29.3,26.7-39.5,96.9-79.7,62.1-3.7-3.1-9.5-9-13.2-12.6.7-14.6,4.4-23.2,12.4-35.1l.6-.2c7.4-11.4,21.7-19.4,33.4-25.5Z"/>
    <path class="cls-22" d="M1196.6,1691.9c7.4-11.4,21.7-19.4,33.4-25.5,3.5,4.1,9.8,11.9,13.6,15.1-10.9,6.6-20.3,13-29.3,22.3l-1.9-.7c-8.7-3.1-12-3.5-15.7-11.3Z"/>
    <path class="cls-7" d="M1196.1,1692.1l.6-.2c3.7,7.8,7,8.2,15.7,11.3l1.9.7c-3.7,4.3-5.7,6.7-8.8,11.3-3.5,5.2-6.3,22.2-8.6,24.7-3.7-3.1-9.5-9-13.2-12.6.7-14.6,4.4-23.2,12.4-35.1Z"/>
    <path class="cls-5" d="M1230,1666.5c12.7-5.2,15-6.5,28.4-3.8,5.6,3.9,13.6,10.2,18.3,15.1-15.3-2.2-19.2-1.7-33.1,3.9-3.7-3.2-10.1-11.1-13.6-15.1Z"/>
    <path class="cls-22" d="M1090.4,1513.1l6.8.3,10.7,9.6c-19.6,5.8-27.3,11.1-41.5,26-5.1,0-5.6-.4-10.3-2.6-3.8-4.8-2.9-2.5-3.1-9,12.3-12.8,20.8-18.5,37.4-24.3Z"/>
    <path class="cls-19" d="M1096.1,1388l2.8-.4c7.1,4.4,8.2,5.4,14,11.4,6.7,8.6,42.5,42.4,50.8,48.1,5.8,5.3,13.9,13,20.9,16.5,5.1,5.4,13.9,14.7,20,18.8l-.2.8c4.7,5,45.9,41.3,51.9,45.7,6.9,5.8,10.2,9,16.3,15.6,27.4,30.2-25.3,73.4-54.8,72.9-10.7-.2-13.3-7.2-21.3-10l-.7-.5-12.2-10.9c-5.3-1.4-48.6-43.6-53.2-49.8-8.2-7.8-15.5-14.3-22.7-23.2l-10.7-9.6-6.8-.3c-.5-8.7-9-15.1-15.7-19.5-4-5-24.9-22-32-29.5l.5-1.3c-4-8.6-3.2-16.5-2.8-25.8,3.5-9.3,4.4-11.8,10.2-19.8,13.7-17.1,23.8-26,45.6-29.3Z"/>
    <path class="cls-18" d="M1050.6,1417.3c4.4,4.8,7.7,8.1,14.2,10.4l-.4,1c10.8,13,25.1,31.6,36.4,43.7,19.6,20.8,42.5,41.5,63.8,60.7,7.3,6.5,20.6,19.7,28.2,24.8l1.2-.4c5.4,6.2,12.1,9.1,16.2,13.6-8.2,10.8-10.9,19.9-12.3,33.6l-1.9,2.3-12.2-10.9c-5.3-1.4-48.6-43.6-53.2-49.8-8.2-7.8-15.5-14.3-22.7-23.2l-10.7-9.6-6.8-.3c-.5-8.7-9-15.1-15.7-19.5-4-5-24.9-22-32-29.5l.5-1.3c-4-8.6-3.2-16.5-2.8-25.8,3.5-9.3,4.4-11.8,10.2-19.8Z"/>
    <path class="cls-7" d="M1193.9,1557.4c5.4,6.2,12.1,9.1,16.2,13.6-8.2,10.8-10.9,19.9-12.3,33.6l-1.9,2.3-12.2-10.9c-1.3-18.2.9-22.2,9-38.2l1.2-.4Z"/>
    <path class="cls-7" d="M1050.6,1417.3c4.4,4.8,7.7,8.1,14.2,10.4l-.4,1c-9.3,11.3-14,21.7-16.6,36.4-2.5-.8-2.5-.6-4.5-2.3-4-8.6-3.2-16.5-2.8-25.8,3.5-9.3,4.4-11.8,10.2-19.8Z"/>
    <path class="cls-12" d="M1097.2,1513.4l-4.9-2.4.5-1.2c8.7,1.7,34.5,27.8,37.8,36.3-8.2-7.8-15.5-14.3-22.7-23.2l-10.7-9.6Z"/>
    <path class="cls-19" d="M1272.6,1544.5c27.4,30.2-25.3,73.4-54.8,72.9-10.7-.2-13.3-7.2-21.3-10l-.7-.5,1.9-2.3c1.3-13.7,4.1-22.8,12.3-33.6,19.5-21.4,33.5-29.8,62.5-26.5Z"/>
    <path class="cls-22" d="M1193.9,1557.4c12.8-18,39.8-34.3,62.4-28.5,6.9,5.8,10.2,9,16.3,15.6-29-3.3-43,5.1-62.5,26.5-4.1-4.5-10.8-7.4-16.2-13.6Z"/>
    <path class="cls-22" d="M1096.1,1388l2.8-.4c7.1,4.4,8.2,5.4,14,11.4-20.8,5.4-33.6,12.7-48.2,28.7-6.5-2.3-9.8-5.6-14.2-10.4,13.7-17.1,23.8-26,45.6-29.3Z"/>
    <path class="cls-19" d="M930.4,1275.8c5.5-4.4,10.8-9.8,17.7-10.3,18.2,7.6,29.9,13.7,40.1,31.3,6.7,9.3,8.4,13.7,12.2,24.6.2,4.7.8,8.5-1,12.8l1.8,1.2c-9.9,14.5-27.3,24.1-33.3,35-4.7,4.6-9.3,8.1-11.1,14.1l1.7,5.2c-14.6-2.2-16,.4-26.9,10l-4.7,5c-8,1.8-52.7,48.1-67,58.9-3.9,6.5-9.7,11.7-11.6,15.2l-4.7.7c-37.6,27.5-100.5-44.5-71.1-70,6.2-5,14.2-10.2,20.9-14.7,16.4-16.5,41.8-33.3,55.2-50.6,1.3-2.4,2.2-2.6,4.6-4.3,19.8-11.8,66.9-59.7,77.2-64.1Z"/>
    <path class="cls-18" d="M988.2,1296.8c6.7,9.3,8.4,13.7,12.2,24.6.2,4.7.8,8.5-1,12.8l1.8,1.2c-9.9,14.5-27.3,24.1-33.3,35-4.7,4.6-9.3,8.1-11.1,14.1l1.7,5.2c-14.6-2.2-16,.4-26.9,10l-4.7,5c-8,1.8-52.7,48.1-67,58.9-.2-14.8-2.2-19.2-8.8-32.6,3.2-1.4,125.6-121.7,125.5-121.5v-1c5.7-3.6,7.3-6.2,11.4-11.6Z"/>
    <path class="cls-7" d="M988.2,1296.8c6.7,9.3,8.4,13.7,12.2,24.6-4,4.8-8.1,7-13.4,10.3-1.9-8.5-5.7-15.1-10.3-22.3v-1c5.7-3.6,7.3-6.2,11.4-11.6Z"/>
    <path class="cls-1" d="M1000.4,1321.4c.2,4.7.8,8.5-1,12.8l-13.6,15.8c1.7-8,1.6-10,1.3-18.2,5.3-3.4,9.3-5.5,13.4-10.3Z"/>
    <path class="cls-19" d="M793.4,1394.7c21.5-4.6,45.9,18.5,56.4,35.2l1.4,1.1c6.6,13.4,8.6,17.8,8.8,32.6-3.9,6.5-9.7,11.7-11.6,15.2l-4.7.7c-37.6,27.5-100.5-44.5-71.1-70,6.2-5,14.2-10.2,20.9-14.7Z"/>
    <path class="cls-22" d="M793.4,1394.7c21.5-4.6,45.9,18.5,56.4,35.2l-16.4,12.9c-4.9-6.7-10.4-12.9-16.3-18.7-14.7-14-25.9-15-44.5-14.6,6.2-5,14.2-10.2,20.9-14.7Z"/>
    <path class="cls-7" d="M849.8,1429.9l1.4,1.1c6.6,13.4,8.6,17.8,8.8,32.6-3.9,6.5-9.7,11.7-11.6,15.2l-4.7.7c-.9-17.6-2.2-20.8-10.3-36.7l16.4-12.9Z"/>
    <path class="cls-22" d="M930.4,1275.8c5.5-4.4,10.8-9.8,17.7-10.3,18.2,7.6,29.9,13.7,40.1,31.3-4.2,5.3-5.7,8-11.5,11.6-14.9-18.9-24.6-25-46.3-32.5Z"/>
    <path class="cls-19" d="M935.8,1525.3c19.8,8.5,35.9,14.5,47.3,34.2l3.7,6.6c5.2-4,7.9-11.3,10.8-17.3,3.6,7.7,4.3,10.2,6.4,18.4l-.6,13.4,2.2,2.2c-4.6,5.4-35.7,37.2-36,39.2-7.6,3.3-11.2,12.2-16.8,19-6.5,2.6-12.6,8.7-17.5,13.9-17.8,23-54.7,63.6-77.8,80-2.4,1.7-6.5,4-7.8,6.4l-4.4-.2c-4.1-14.5,1.9-11.2-10.3-32.5,6.8-5,10-7.2,15.8-13.3-14.7-22.1-34.9-29-59.6-33.7,9.5-8.7,50.7-44,56.1-52.6l-.3-2.5c1.1-.2,5.6-2.1,6.9-2.6,6-1.8,26.2-21.3,31.1-26.7,5.1-4,13.5-13.2,18.3-18.1,6.2-4.7,26.2-27.1,32.4-33.8Z"/>
    <path class="cls-18" d="M997.6,1548.7c3.6,7.7,4.3,10.2,6.4,18.4l-.6,13.4,2.2,2.2c-4.6,5.4-35.7,37.2-36,39.2-7.6,3.3-11.2,12.2-16.8,19-6.5,2.6-12.6,8.7-17.5,13.9-17.8,23-54.7,63.6-77.8,80-2.4,1.7-6.5,4-7.8,6.4l-4.4-.2c-4.1-14.5,1.9-11.2-10.3-32.5,6.8-5,10-7.2,15.8-13.3l.9.3c5.7-2.7,16.8-15.5,22.1-20.9,22.2-22.4,44-45.2,65.1-68.6,11.4-12.6,31.7-37.2,44-46.6l3.7,6.6c5.2-4,7.9-11.3,10.8-17.3Z"/>
    <path class="cls-7" d="M851,1695.3l.9.3c5.3,11.1,11.4,23.5,7,35.9l-.4,1.1c-.3.7-.6,1.5-.9,2.2-2.4,1.7-6.5,4-7.8,6.4l-4.4-.2c-4.1-14.5,1.9-11.2-10.3-32.5,6.8-5,10-7.2,15.8-13.3Z"/>
    <path class="cls-1" d="M997.6,1548.7c3.6,7.7,4.3,10.2,6.4,18.4l-.6,13.4-10.1,12.4c-1.3-11.6-2.6-15.9-6.5-26.9,5.2-4,7.9-11.3,10.8-17.3Z"/>
    <path class="cls-19" d="M927,1404.7l4.7-5c21.1,6.3,38.5,13.9,51.1,33.5l3.8,5.7c1.6,4.6,6,18.3,8.1,21.9l.9.4,4.2,1.7c-9.9,12.1-21.6,19.3-31.1,29.9-6.6,6.8-13,12.9-18.2,20.9-6.7,3.8-9.1,6.5-14.7,11.8-6.2,6.7-26.2,29.1-32.4,33.8-4.8,5-13.1,14.2-18.3,18.1-4.8,5.4-25,24.9-31.1,26.7-1.3.5-5.8,2.4-6.9,2.6-2-12.4-3.7-16.7-9.5-27.9,3.1-3.9,12.5-8,17.2-10.4l-2.3-5.3-8-9.7c-15.6-15.2-28.6-24.4-50.8-26.6,18.1-16.1,36.3-32,54.5-47.9,1.9-3.6,7.7-8.7,11.6-15.2,14.3-10.8,58.9-57.1,67-58.9Z"/>
    <path class="cls-18" d="M982.7,1433.1l3.8,5.7c1.6,4.6,6,18.3,8.1,21.9l.9.4,4.2,1.7c-9.9,12.1-21.6,19.3-31.1,29.9-6.6,6.8-13,12.9-18.2,20.9-6.7,3.8-9.1,6.5-14.7,11.8-6.2,6.7-26.2,29.1-32.4,33.8-4.8,5-13.1,14.2-18.3,18.1-4.8,5.4-25,24.9-31.1,26.7-1.3.5-5.8,2.4-6.9,2.6-2-12.4-3.7-16.7-9.5-27.9,3.1-3.9,12.5-8,17.2-10.4l-2.3-5.3c4.7-3.1,11-9.5,15.3-13.6,34-32.6,65.6-67.6,98.9-101.1,5.3-5.3,11-9.6,16.1-15.1Z"/>
    <path class="cls-7" d="M854.9,1568.2c9.7,18.9,8.4,18.7-.8,35.7-1.3.5-5.8,2.4-6.9,2.6-2-12.4-3.7-16.7-9.5-27.9,3.1-3.9,12.5-8,17.2-10.4Z"/>
    <path class="cls-8" d="M885.1,1577.2l-1.5-1.9c4.5-5.5,12.9-15.2,19.8-16.2-4.8,5-13.1,14.2-18.3,18.1Z"/>
    <path class="cls-8" d="M860,1463.6c14.3-10.8,58.9-57.1,67-58.9-7.9,8.9-71.5,71.4-78.6,74.1,1.9-3.6,7.7-8.7,11.6-15.2Z"/>
    <path class="cls-19" d="M1061.6,1149.1c10.7-10.8,22.9-12.6,36.5-6.8,2.5,2.5,3.8,3.8,6,6.5,5.3,3.6,13.3,8.5,18.1,12.4-24.4,3-30.7,9.6-47.6,27.5l-4.9,7.7c-5.7,9.9-8.2,20.2-10.2,32.3-.8.2-1.6.4-2.3.7-11.4-7.3-10.4-8.9-10.4-22-5.9,5.3-3.5,4.7-9.4,4.3-7.8-9,1.2-26.2,1.6-37.3,2.3-7.5,5-11,11.2-15.6h1.8c4.2-3.2,7.4-4.9,9.5-9.6Z"/>
    <path class="cls-5" d="M1060,1181.4c8.1-3.5,7.2-11.4,16.8-13.5l3.1,2c2.4,14.9-3.5,6.5-6.1,17.2l.9,1.6-4.9,7.7c-5.7,9.9-8.2,20.2-10.2,32.3-.8.2-1.6.4-2.3.7-11.4-7.3-10.4-8.9-10.4-22,2.8-7.5,7.8-19.9,13.1-25.8Z"/>
    <path class="cls-22" d="M1104.2,1148.8c5.3,3.6,13.3,8.5,18.1,12.4-24.4,3-30.7,9.6-47.6,27.5l-.9-1.6c2.6-10.7,8.5-2.3,6.1-17.2l-3.1-2c-9.6,2.1-8.7,10-16.8,13.5,7.5-17.8,26.2-28.3,44.2-32.6Z"/>
    <path class="cls-19" d="M968.7,1492.6c6.7,2.8,10.9,4.2,16.6,8.8,3.6,5.7,6.3,7.2,9,11.1,4.2,4.6,5.4,5.9,8.4,11.6-1.5,17.8,22.7,25.8,4.6,48.1l-3.4-5c-2.1-8.3-2.8-10.8-6.4-18.4-2.9,6.1-5.6,13.3-10.8,17.3l-3.7-6.6c-11.4-19.7-27.5-25.6-47.3-34.2,5.5-5.3,8-7.9,14.7-11.8,5.3-7.9,11.6-14.1,18.2-20.9Z"/>
    <path class="cls-22" d="M950.5,1513.5c23.5,7.1,33.1,14.3,47.1,35.2-2.9,6.1-5.6,13.3-10.8,17.3l-3.7-6.6c-11.4-19.7-27.5-25.6-47.3-34.2,5.5-5.3,8-7.9,14.7-11.8Z"/>
    <path class="cls-19" d="M963.1,1250.5c8.5,1.6,16.7,4.8,24,9.5,2.2,3.2,4.7,7.8,7.7,9.7,12,11.3,13.6,23.1,20.6,38.4-1.9,11.6-7.7,9.5-8.2,18.8v1.8c-1.9,2-4.1,4.8-6,6.7l-1.8-1.2c1.8-4.3,1.2-8.1,1-12.8-3.8-10.9-5.5-15.3-12.2-24.6-10.2-17.6-21.9-23.6-40.1-31.3,1.6-4.6,10.4-10.7,15-15Z"/>
    <path class="cls-19" d="M1081.6,1369.1c6.8,6.3,12.4,10,14.5,18.9-21.8,3.3-31.9,12.2-45.6,29.3-5.7,8-6.6,10.5-10.2,19.8-1.5.4-1.8.7-2.9,1.8-3.3-1.7-11,1.6-12.5-8.4-.8-5.3.6-8.2,2.8-12.7,6.4-12.9,13.3-24.1,25-32.4-.3.2,6.3-5.8,7.4-6.7,6.4-3.2,14.7-6.6,21.4-9.5Z"/>
    <path class="cls-19" d="M1062.7,1500.2c1.5-1.3,9.7-5.3,11.9-6.5,6.7,4.3,15.2,10.8,15.7,19.5-16.7,5.8-25.2,11.5-37.4,24.3-5,6-8.5,10-12.6,16.6-6.4,2.3-3.3,5.9-8.9,12-7.4-11.1,1.5-25.7,4.4-37.7,2.4-6.1,7.7-11.9,12.1-16.6,6.8-4,8.9-6.1,14.7-11.6Z"/>
    <path class="cls-19" d="M1058.1,1631.6c4.6-3.8,12.3-6.8,18-9.2,7.6,5.2,8.8,6.4,14.8,13.4,0,1.3,0,2.3.4,3.7l1,.5c-21.9,7.1-26.9,9.9-42.9,27.2-1.8,2.2-6.8,9.1-8.7,10.1-3.3,2.1-3.2,2.2-5.3,5.3-.5,4.8-.3,8.1-4.8,10.3l-3.3-1.7c-2.5-4.1-2.8-4.6-2.6-9.4l1.4-.5,2.8,1.8c3.8-3.9,4.9-17.8,5.7-23.8,4.3-9.2,6.3-14,14.7-19.7,4.8-1.3,6.2-3.8,8.9-7.6Z"/>
    <path class="cls-22" d="M931.6,1399.7c10.9-9.7,12.3-12.2,26.9-10,16.1,8.7,25.6,14.8,36.9,29.9-2.1,6.8-3.4,13.2-8.1,18.3l-.8.9-3.8-5.7c-12.7-19.5-30-27.1-51.1-33.5Z"/>
    <path class="cls-7" d="M1049.4,1667c2.9,3,9.8,10.9,13.4,11.4l-3.6,5.3c-7.9,10.6-12.2,20.6-14.4,33.7l-1.6,1.9-1.4-1.2-2.7-6.1c-6.4-14.5-3.8-20.7,1.6-34.9,2-1,7-7.9,8.7-10.1Z"/>
    <path class="cls-18" d="M1005.4,1654.8l9,12.6c1.6,25.4.6,13.8-8.2,34.7-1.7-10.3-3.1-17.9-8.8-26.8l-7-10c10.3-1.5,12.8,0,15-10.6Z"/>
    <path class="cls-1" d="M995.5,1419.5c5.8,11.4,8.1,17.4,10.1,30-3.2,4.7-5.2,8.5-10,11.5l-.9-.4c-2.1-3.6-6.5-17.3-8.1-21.9l.8-.9c4.7-5.2,5.9-11.6,8.1-18.3Z"/>
    <path class="cls-8" d="M1015.5,1618.4l1.6-2.1c1.3,1.6,2.3,4.8,1.9,6.6-3.6,15.5,3.6,89.7-4.6,98,.9-7.2,1.2-10.6,1.1-17.8l-4.1-.2c1-1.1,2.1-1.8,2.3-2.9-5.1,3.2-6.4,7.9-10,13.1l-.8-1.2c2.5-4.3,2.5-4.6,3.2-9.7,8.7-20.9,9.8-9.3,8.2-34.7,1.9-7.7,1.4-40.4,1-49.1Z"/>
    <path class="cls-18" d="M1017,898.7c1.6-2.6,2-2.8,4-5l4.5-.2c0,7,0,23.7,1.3,29.8,2,13.6-.7,27.1,2.1,39.6,1.1,4.9,1.6,5.6,0,10.1-1.8,9-1.5,18.6-.8,27.8,5.1,8,20.8,32.3,31.1,30.9,5-6.1,13-10.1,19.9-14.1,9.7,4.6,19.7,9.3,28.6,15.3,7.1,3.7,11.3,6.1,17.9,10.5-22.5,1.3-39.9,18.9-50.8,37.2l-2.4,3.8c-4.7,10.3-8.3,19.6-7.1,31.2l-1.6,1.2-3.2.6c-17.9-12.6-20.3-23.2-31.8-31.6-1.9,8.6-1.3,15.9-1.1,24.5,5.6,8,25,36.4,33.8,38.7-2.1,4.7-5.3,6.4-9.5,9.5h-1.8c-.7-3.5-18.4-21.6-24-31.1.9,13,.8,25.6.8,38.6-2.8,11.9-1.9,34.4-10.2,44.3l-1-4.3c-6,.6-17.9,12.6-21.1,18-5.9,10.2-27.4,19.3-31.8,26.3-4.6,4.3-13.4,10.5-15,15-6.8.5-12.1,5.9-17.7,10.3-10.3,4.3-57.4,52.3-77.2,64.1-2.4,1.7-3.3,1.9-4.6,4.3l-10,5.4c-.4-2-.5-1.5-.2-3.3,2.3-14.8-2-24.8-8.4-37.8,5.8-5,8.9-5.7,15.2-12.5-13-22.2-30.7-33.5-54.9-40.5,10.8-5.1,36.4-24.7,44.9-33.1h.4c0,0-.5-1.3-.5-1.3-1.5-1.5-4.1-24.5-6.8-33.1,5.1-8.3,6.9-11.3,13.4-18.5-.7-1-1.4-2.1-2.1-3.1-14.8-21.4-27.6-31.5-53.1-36.2,9.5-5.5,75.2-50.7,79.5-55.6,8.1-2,44.6-26,55.2-32.2l18.7-10.1c12-10.1,17.3-12.1,32.8-10.6,6.3,3.8,9.2,6.7,14.6,11.6,2.1,5.8,2.6,6.4,6.7,11.1l1.8.6c11.4,11.2,10.8,22,16.7,34.1,7-13,2.9-33.3,4.4-49.6,6-11.6,4.1-26.6,2.1-39.3.7-9.4-1.1-42-2-51.6-1.1-6.5,0-29.5.2-36.9l-.2-2.7ZM964.1,1133.7c7,3.2,14.5,7.2,21.4,10.7,15.9-12.5,33.3-32.3,29.5-54.3-7.6,4.7-13.6,9.6-18.8,17-8.1,10.6-21.2,17.2-32.2,26.6ZM1031.5,1076.5c5.9-11.4,8.3-22.3,17.3-31.5-2.5-4-15.4-17.5-21.1-25.2-.3,13.9-1.5,42.6,1.8,55.7l1.9,1ZM993.5,1153.9c7,9.8,10.7,17.2,14.8,28.6,2,4.7.7,3.2,4.8,5.8,4.8-4.8,4.1-50.8,2-57.8-6.2,8.5-14.1,15.9-21.6,23.4Z"/>
    <path class="cls-19" d="M929.6,1156.9c20.8,6,32.3,17.6,44.6,35.1l-.3,1c-35.7,26.6-68.8,61.8-107.1,86.5-5.7,3.7-16.1,11.5-20.8,15.9l-.7.4c-13-22.2-30.7-33.5-54.9-40.5,10.8-5.1,36.4-24.7,44.9-33.1h.4c0,0-.5-1.3-.5-1.3,3.8-3.2,6.2-5.7,10.9-7.2,5.2-.6,73.7-49.8,83.6-56.8Z"/>
    <path class="cls-19" d="M921.2,1042.2c18.3,6.1,39.7,17.4,49.4,35.1-24.2,22.3-36.6,31.2-64.3,49.5-15.5,10.2-51.7,32.7-62.6,45.2l-2-2.4c-.7-1-1.4-2.1-2.1-3.1-14.8-21.4-27.6-31.5-53.1-36.2,9.5-5.5,75.2-50.7,79.5-55.6,8.1-2,44.6-26,55.2-32.2Z"/>
    <path class="cls-19" d="M1079.1,1017.6c9.7,4.6,19.7,9.3,28.6,15.3,7.1,3.7,11.3,6.1,17.9,10.5-22.5,1.3-39.9,18.9-50.8,37.2l-2.4,3.8c-4.7,10.3-8.3,19.6-7.1,31.2l-1.6,1.2-3.2.6c-17.9-12.6-20.3-23.2-31.8-31.6,2.6-3.9,2.4-4.4,2.6-9.3,5.9-11.4,8.3-22.3,17.3-31.5,4-1.5,8.8-9.4,10.4-13.3,5-6.1,13-10.1,19.9-14.1Z"/>
    <path class="cls-22" d="M1107.7,1032.9c7.1,3.7,11.3,6.1,17.9,10.5-22.5,1.3-39.9,18.9-50.8,37.2l-2.4,3.8c-6.5-2.5-9.4-3.2-14.6-7.9,11-20.7,25.6-38.8,49.8-43.6Z"/>
    <path class="cls-7" d="M1063.9,1116.8c-16.1-11.4-13.2-24.5-6-40.3,5.2,4.7,8.1,5.4,14.6,7.9-4.7,10.3-8.3,19.6-7.1,31.2l-1.6,1.2Z"/>
    <path class="cls-19" d="M939.9,1032.2c12-10.1,17.3-12.1,32.8-10.6,6.3,3.8,9.2,6.7,14.6,11.6,2.1,5.8,2.6,6.4,6.7,11.1l1.8.6c11.4,11.2,10.8,22,16.7,34.1-.4,4,1.2,7.3,2.6,11.2-7.6,4.7-13.6,9.6-18.8,17l-1.2-1.5c-.8-12-.4-21.4-6.6-31.8-5,5.1-7.8,5.5-14.5,7.7l-3.4-4.3c-9.6-17.6-31.1-28.9-49.4-35.1l18.7-10.1Z"/>
    <path class="cls-22" d="M939.9,1032.2c22.7,9.5,37.2,18.9,48.6,41.7-5,5.1-7.8,5.5-14.5,7.7l-3.4-4.3c-9.6-17.6-31.1-28.9-49.4-35.1l18.7-10.1Z"/>
    <path class="cls-22" d="M944.1,1146.9c19.8,7.2,31.4,13.7,42.5,32.4-4.5,5.2-7.3,8.1-12.4,12.8-12.3-17.6-23.9-29.1-44.6-35.1,5.6-4.4,8.3-6.5,14.5-10Z"/>
    <path class="cls-7" d="M845.2,1295.9l.7-.4c7.9,15.4,13.1,25.9,7.6,43.2l-.4,1.2c-2.4,1.7-3.3,1.9-4.6,4.3l-10,5.4c-.4-2-.5-1.5-.2-3.3,2.3-14.8-2-24.8-8.4-37.8,5.8-5,8.9-5.7,15.2-12.5Z"/>
    <path class="cls-7" d="M841.8,1169.4l2,2.4c5.2,14,11.2,28.2,2.3,41.9-4.7,1.5-7.1,4.1-10.9,7.2-1.5-1.5-4.1-24.5-6.8-33.1,5.1-8.3,6.9-11.3,13.4-18.5Z"/>
    <path class="cls-7" d="M986.6,1179.3c7.5,13.6,15.1,42.3-.4,52.2-7.6-7.4-4.8-25.2-12.3-38.4l.3-1c5.1-4.7,7.9-7.6,12.4-12.8Z"/>
    <path class="cls-7" d="M988.5,1073.9c6.2,10.4,5.8,19.8,6.6,31.8-3.4,3.6-6.1,7.3-10.3,7.7-3.2-4.6-5.2-19.9-10.8-31.7,6.8-2.2,9.5-2.6,14.5-7.7Z"/>
    <path class="cls-19" d="M1092.3,1639.9c6.3,3.2,11.4,6.2,15.5,12.2,5.4,7.3,49.6,54,55.8,57.4l87.1,89.8c5.6,4.7,13.1,10.2,16.8,16.3,4.3,5.9,8.5,13.5,6.3,20.9-10.9,35.6-55.5,62.6-89,40.2l-8.9-6.4c-12.6-7.5-51.2-68.9-68.4-79.8-2.6-1.6-2.6-1.6-4.7-3.9,1.8-1.6,1.1-.6,1.9-3.2-4.1-6.8-8.9-9.5-16.6-11.1l1.3-2.3c-1.2-4.8-5.6-7.5-9.3-10.3-5.8-4.2-6.9-3.4-13.6-3.3,2.9-1.1,3.9-2,6.3-3.7-.2-6-23-26.3-29.5-33.3l1.6-1.9c2.2-13.2,6.5-23.2,14.4-33.7l3.6-5.3c-3.6-.5-10.4-8.4-13.4-11.4,16-17.3,21-20.1,42.9-27.2Z"/>
    <path class="cls-19" d="M1224.5,1800.2c11.3-3,14.9-3.6,26.2-.9,5.6,4.7,13.1,10.2,16.8,16.3,4.3,5.9,8.5,13.5,6.3,20.9-10.9,35.6-55.5,62.6-89,40.2l-8.9-6.4c-.7-2.8-5-9.4-6.7-12.2,4.3-16.2,7-22.3,17.6-35.2l1.9-1.2c14-12.1,19.1-14.7,35.9-21.5Z"/>
    <path class="cls-7" d="M1188.6,1821.7c4.2,3.4,12.7,9.9,15.2,14-13.8,14.9-18.8,20.5-19.1,41l-8.9-6.4c-.7-2.8-5-9.4-6.7-12.2,4.3-16.2,7-22.3,17.6-35.2l1.9-1.2Z"/>
    <path class="cls-22" d="M1188.6,1821.7c14-12.1,19.1-14.7,35.9-21.5,6.8,3.7,7,7.6,10.5,16.4-13.4,5.5-19.9,9.9-31.2,19.1-2.5-4.1-11.1-10.6-15.2-14Z"/>
    <path class="cls-5" d="M1224.5,1800.2c11.3-3,14.9-3.6,26.2-.9,5.6,4.7,13.1,10.2,16.8,16.3-14.1-2.6-18.6-2.5-32.5,1-3.5-8.8-3.7-12.7-10.5-16.4Z"/>
    <path class="cls-18" d="M1059.1,1683.7l56.5,64.3c18.2,20.9,50.3,60.9,71.1,74.9-10.6,12.9-13.3,19-17.6,35.2,1.7,2.9,6,9.4,6.7,12.2-12.6-7.5-51.2-68.9-68.4-79.8-2.6-1.6-2.6-1.6-4.7-3.9,1.8-1.6,1.1-.6,1.9-3.2-4.1-6.8-8.9-9.5-16.6-11.1l1.3-2.3c-1.2-4.8-5.6-7.5-9.3-10.3-5.8-4.2-6.9-3.4-13.6-3.3,2.9-1.1,3.9-2,6.3-3.7-.2-6-23-26.3-29.5-33.3l1.6-1.9c2.2-13.2,6.5-23.2,14.4-33.7Z"/>
    <path class="cls-22" d="M1092.3,1639.9c6.3,3.2,11.4,6.2,15.5,12.2-21.2,5.8-29.4,10.1-45,26.4-3.6-.5-10.4-8.4-13.4-11.4,16-17.3,21-20.1,42.9-27.2Z"/>
    <path class="cls-19" d="M1111.7,921.1c5-2.8,3.8-1.9,10.3-1.9,34.4,20.8,69.2,40.7,104.4,60,14.7,8.1,34.4,19.7,49.3,26.2,7.4,2.9,9.8,4.2,16.5,8.4,22.3,18.9,3.5,50.8-13.7,66-13.1,14.9-21.9,20.4-41.5,24.7-3.4-1.1-10.3-3-13.3-4.5l-2.9-1.2c-15.6-5.3-57.4-39.7-77.5-44.8-1.2-.2-15.2-9.1-17.7-10.5-6.7-4.4-10.8-6.8-17.9-10.5-9-6-18.9-10.7-28.6-15.3-2.4-6.1-19.6-15-26.3-18.8l-1-.4c-8-10.3-3-22.4.2-33.8,5.7,2.1,9,2.1,14.9,2.7l2.3-3.1c7.6-21.7,25.2-31.7,42.6-42.9Z"/>
    <path class="cls-18" d="M1051.7,998.3c-8-10.3-3-22.4.2-33.8,5.7,2.1,9,2.1,14.9,2.7l2.3-3.1c1.9,2.2,2.3,3.6,4.8,4.3,22.4,5.9,128,75.1,139.8,76.1v1.3c5.5,3.6,12,6.1,18.1,8.8-9.1,19.9-10,24.7-8,45.5l-2.9-1.2c-15.6-5.3-57.4-39.7-77.5-44.8-1.2-.2-15.2-9.1-17.7-10.5-6.7-4.4-10.8-6.8-17.9-10.5-9-6-18.9-10.7-28.6-15.3-2.4-6.1-19.6-15-26.3-18.8l-1-.4Z"/>
    <path class="cls-7" d="M1213.6,1045.8c5.5,3.6,12,6.1,18.1,8.8-9.1,19.9-10,24.7-8,45.5l-2.9-1.2c-6.4-6.5-11.1-5.3-14.9-17.2-3.5-10.9,2-26.3,7.7-35.8Z"/>
    <path class="cls-7" d="M1051.7,998.3c-8-10.3-3-22.4.2-33.8,5.7,2.1,9,2.1,14.9,2.7-4.7,13.7-4.3,21.8-7.7,32-2.8.9-3.5.4-6.4-.4l-1-.4Z"/>
    <path class="cls-19" d="M1292.3,1013.8c22.3,18.9,3.5,50.8-13.7,66-13.1,14.9-21.9,20.4-41.5,24.7-3.4-1.1-10.3-3-13.3-4.5-2-20.8-1.2-25.6,8-45.5,15.6-23.7,30.3-38.9,59.8-38.8l.8-2Z"/>
    <path class="cls-18" d="M1292.3,1013.8c22.3,18.9,3.5,50.8-13.7,66,2.7-13.6,12.8-49.4,10.9-61.7l2-2.3.8-2Z"/>
    <path class="cls-5" d="M1213.7,1044.5c14.3-25.4,30.5-45.2,62.1-39.1,7.4,2.9,9.8,4.2,16.5,8.4l-.8,2c-29.4-.1-44.2,15.1-59.8,38.8-6.1-2.6-12.6-5.2-18.1-8.8v-1.3Z"/>
    <path class="cls-19" d="M943.3,1786.2l13.6,5.7c13,7.5,17.5,10.8,27,22.3l2.6,3,1,1.8c5.3,10,7.5,23.4,11.9,28.9l2.4.2,5.5-5c-5.5,11.4-17.4,22.4-24.4,33.5-23.4,37.3-58,81.8-74.8,121.4-4,5.9-9.6,15.1-14.8,19.5-38.4,26.8-113.8-30.6-94.5-63.2,4.7-6.7,13.3-16.7,18.7-22.5,12.8-15.7,45.5-57.2,59-68.6,2.7-2,22.8-26.4,26.7-31,4.3-3,18.6-20.5,22.7-25.4l7.5-9.3c4.1-2.8,5.8-6.5,8.5-10.8l1.4-.5Z"/>
    <path class="cls-19" d="M817.4,1931.7c13.5.2,20.9,2.9,30.6,3.3,16,6.6,29.1,13.6,40.7,26.8l.7-.3c10.4,12.8,17.4,19.4,18.6,36.4-4,5.9-9.6,15.1-14.8,19.5-38.4,26.8-113.8-30.6-94.5-63.2,4.7-6.7,13.3-16.7,18.7-22.5Z"/>
    <path class="cls-22" d="M848,1935c16,6.6,29.1,13.6,40.7,26.8-3.6,9.5-6.9,10.9-15.5,15.6-12.4-10.8-19.5-14.4-34.1-21.1,2.7-7.4,5.7-14.1,8.9-21.4Z"/>
    <path class="cls-7" d="M888.8,1961.8l.7-.3c10.4,12.8,17.4,19.4,18.6,36.4-4,5.9-9.6,15.1-14.8,19.5-.6-1-1-1.9-1.1-3.1-.8-16.2-8.4-25.3-18.9-36.9,8.7-4.8,11.9-6.1,15.5-15.6Z"/>
    <path class="cls-7" d="M817.4,1931.7c13.5.2,20.9,2.9,30.6,3.3-3.2,7.2-6.2,13.9-8.9,21.4-15.7-4.7-24.5-5.5-40.4-2.2,4.7-6.7,13.3-16.7,18.7-22.5Z"/>
    <path class="cls-18" d="M983.9,1814.2l2.6,3,1,1.8c5.3,10,7.5,23.4,11.9,28.9l2.4.2,5.5-5c-5.5,11.4-17.4,22.4-24.4,33.5-23.4,37.3-58,81.8-74.8,121.4-1.2-17-8.1-23.6-18.6-36.4,2.6-4.5,1.2-7.7,5.9-15,17.7-27.6,37-54.2,55.2-81.4,8.4-12.5,15.3-28,23.5-40.8,2.7-4.2,5.7-7.4,9.8-10.1Z"/>
    <path class="cls-19" d="M1114.6,1276.2c6.6,6.2,23.7,20.6,31.2,25.3,7.3,6.2,37.5,31.4,43.8,34.5,2.4,2,8.1,6,9.4,8.3,10.2,11.9,44.9,38.7,58.8,49.2,5,4.1,13,10.3,17.5,14.5,31.6,33.5-33.3,90.5-70.8,75.1l.2-.8c-6.2-4.1-15-13.3-20-18.8-7-3.5-15.1-11.2-20.9-16.5-8.3-5.7-44.2-39.5-50.8-48.1-5.7-6.1-6.9-7.1-14-11.4l-2.8.4c-2.2-8.9-7.7-12.6-14.5-18.9-9.3-7.2-20.6-15-28.8-22.9,4.7-2.5,4.7-13.1,7.4-19.1,2.9-6.3,4-8.7,8.2-14.4l.6-1.1c13.3-19.5,24.1-26.7,45.6-35.3Z"/>
    <path class="cls-19" d="M1244.7,1392.4c4.8.2,8.2.2,13,1.2,5,4.1,13,10.3,17.5,14.5,31.6,33.5-33.3,90.5-70.8,75.1l.2-.8c-6.2-4.1-15-13.3-20-18.8,1.6-16.6,2.8-20.8,10.5-35.5l.5.2c9.1-18.5,30-30.4,49-35.9Z"/>
    <path class="cls-22" d="M1195.7,1428.3c9.1-18.5,30-30.4,49-35.9,3.3,7.8,3.3,9.2,3.8,17.7-15.9,8.3-25,13.7-35.5,28.9-6.3-2.9-11.7-6.8-17.3-10.7Z"/>
    <path class="cls-7" d="M1195.2,1428.1l.5.2c5.6,3.9,11,7.8,17.3,10.7-11.2,19.8-10.5,22.1-8.3,43.4-6.2-4.1-15-13.3-20-18.8,1.6-16.6,2.8-20.8,10.5-35.5Z"/>
    <path class="cls-5" d="M1244.7,1392.4c4.8.2,8.2.2,13,1.2,5,4.1,13,10.3,17.5,14.5-8.3,2.7-14.5-1.4-26.8,2-.5-8.5-.5-9.9-3.8-17.7Z"/>
    <path class="cls-18" d="M1068.4,1312.6c4.8,4.3,30.7,28.8,34.5,32.4,15.8,15.2,83.5,69.6,92.3,83.1-7.7,14.8-9,18.9-10.5,35.5-7-3.5-15.1-11.2-20.9-16.5-8.3-5.7-44.2-39.5-50.8-48.1-5.7-6.1-6.9-7.1-14-11.4l-2.8.4c-2.2-8.9-7.7-12.6-14.5-18.9-9.3-7.2-20.6-15-28.8-22.9,4.7-2.5,4.7-13.1,7.4-19.1,2.9-6.3,4-8.7,8.2-14.4Z"/>
    <path class="cls-8" d="M1098.9,1387.6c6.6-1.7,62.7,53.2,64.8,59.5-8.3-5.7-44.2-39.5-50.8-48.1-5.7-6.1-6.9-7.1-14-11.4Z"/>
    <path class="cls-19" d="M1122.3,1161.2c18.8,10.1,57.1,35.8,73.3,49.7,7,8.9,9.6,8,16.6,14l1.2,3.3c.8.3,2.9,1.1,3.6,1.2,13.9,8.2,30.4,17.1,43.4,26.1,7.6,3.7,15,7.9,20.5,14.5,28.5,29.3-34.1,96.8-73.1,78.9l-8.9-4.4c-1.3-2.3-6.9-6.4-9.4-8.3-6.2-3.1-36.4-28.3-43.8-34.5-7.5-4.7-24.6-19.1-31.2-25.3-5.8-4.9-7.5-5.9-14.2-9.5-3.3-6.4-12.1-10.9-18.5-15.8-5.5-4.7-10.2-6.5-16.3-12.7l-9.8-5.9,1.5-3.1c.8-.2,1.6-.4,2.3-.7,2-12.1,4.5-22.4,10.2-32.3l4.9-7.7c16.9-17.9,23.2-24.5,47.6-27.5Z"/>
    <path class="cls-19" d="M1260.4,1255.4c7.6,3.7,15,7.9,20.5,14.5,28.5,29.3-34.1,96.8-73.1,78.9l-8.9-4.4c-1.3-2.3-6.9-6.4-9.4-8.3-.5-16.9,3.4-28.3,10.3-43.4l1.6-1.7c9-12.7,20.8-23.2,34.3-30.9,9.6-5,14.1-4.8,24.6-4.7Z"/>
    <path class="cls-7" d="M1199.9,1292.6l1.6-1.7c6.1,6.3,9.4,9.7,17.8,13-9.5,16.5-13.6,25.6-11.4,44.8l-8.9-4.4c-1.3-2.3-6.9-6.4-9.4-8.3-.5-16.9,3.4-28.3,10.3-43.4Z"/>
    <path class="cls-22" d="M1201.5,1290.9c9-12.7,20.8-23.2,34.3-30.9,3.6,8.6,5,11.1,10.1,18.9-12.7,8.5-17.6,12.7-26.6,25-8.4-3.3-11.7-6.7-17.8-13Z"/>
    <path class="cls-5" d="M1260.4,1255.4c7.6,3.7,15,7.9,20.5,14.5-4.8,2.2-7.9.5-13.6,1.4-9.3,1.3-13.4,3.5-21.5,7.7-5.1-7.8-6.5-10.3-10.1-18.9,9.6-5,14.1-4.8,24.6-4.7Z"/>
    <path class="cls-18" d="M1069.8,1196.3c22.2,9,82.3,63.6,106.4,80.1,5.2,3.5,18.3,14.2,23.7,16.2-6.9,15.1-10.8,26.5-10.3,43.4-6.2-3.1-36.4-28.3-43.8-34.5-7.5-4.7-24.6-19.1-31.2-25.3-5.8-4.9-7.5-5.9-14.2-9.5-3.3-6.4-12.1-10.9-18.5-15.8-5.5-4.7-10.2-6.5-16.3-12.7l-9.8-5.9,1.5-3.1c.8-.2,1.6-.4,2.3-.7,2-12.1,4.5-22.4,10.2-32.3Z"/>
    <path class="cls-8" d="M1065.6,1238.2c11.6.3,66.2,47.6,76.4,57.5,1.7,1.6,3,3.6,3.9,5.8-7.5-4.7-24.6-19.1-31.2-25.3-5.8-4.9-7.5-5.9-14.2-9.5-3.3-6.4-12.1-10.9-18.5-15.8-5.5-4.7-10.2-6.5-16.3-12.7Z"/>
    <path class="cls-19" d="M1125.7,1043.5c2.4,1.4,16.5,10.3,17.7,10.5,31.2,24.1,80.8,55.7,115,76.3,9.7,5.2,14.6,7.8,22.7,15.4,19.5,18-.4,47.8-14.4,62.3-15.3,15.9-27.6,23.2-49.6,21.3-.7,0-2.8-.9-3.6-1.2l-1.2-3.3c-7-5.9-9.6-5-16.6-14-16.2-13.9-54.4-39.6-73.3-49.7-4.8-3.8-12.8-8.8-18.1-12.4-2.3-2.7-3.5-4.1-6-6.5-5.6-5.9-28-18.3-37.4-24.8l3.2-.6,1.6-1.2c-1.2-11.6,2.3-20.9,7.1-31.2l2.4-3.8c10.9-18.4,28.3-36,50.8-37.2Z"/>
    <path class="cls-19" d="M1258.3,1130.3c9.7,5.2,14.6,7.8,22.7,15.4,19.5,18-.4,47.8-14.4,62.3-15.3,15.9-27.6,23.2-49.6,21.3-.7,0-2.8-.9-3.6-1.2l-1.2-3.3c-7-5.9-9.6-5-16.6-14l.4-5c-1.1-10.6,2.6-21,5.6-31.3l1.1-.8c12.4-23.7,29.8-37.7,55.6-43.4Z"/>
    <path class="cls-5" d="M1258.3,1130.3c9.7,5.2,14.6,7.8,22.7,15.4-30.1-3.6-47.6,15.1-61.7,39.7-6.6-3.8-11.3-6.1-16.7-11.6,12.4-23.7,29.8-37.7,55.6-43.4Z"/>
    <path class="cls-7" d="M1202.6,1173.8c5.4,5.5,10.1,7.8,16.7,11.6-5.2,12.7-6.9,22-6.2,35.8,0,2,0,2-.9,3.6-7-5.9-9.6-5-16.6-14l.4-5c-1.1-10.6,2.6-21,5.6-31.3l1.1-.8Z"/>
    <path class="cls-18" d="M1074.9,1080.7c2.4,3.8,61.6,44.3,70.1,49.2,22.1,12.7,37.1,30.6,56.6,44.7-2.9,10.2-6.6,20.6-5.6,31.3l-.4,5c-16.2-13.9-54.4-39.6-73.3-49.7-4.8-3.8-12.8-8.8-18.1-12.4-2.3-2.7-3.5-4.1-6-6.5-5.6-5.9-28-18.3-37.4-24.8l3.2-.6,1.6-1.2c-1.2-11.6,2.3-20.9,7.1-31.2l2.4-3.8Z"/>
    <path class="cls-12" d="M1098.2,1142.2c9.1.3,83.8,59.3,97.8,63.6l-.4,5c-16.2-13.9-54.4-39.6-73.3-49.7-4.8-3.8-12.8-8.8-18.1-12.4-2.3-2.7-3.5-4.1-6-6.5Z"/>
    <path class="cls-19" d="M1065.6,1805.8c11.1-10.1,22.1-16.9,37.1-19.3,2.1,2.4,2.1,2.3,4.7,3.9,17.2,11,55.8,72.3,68.4,79.8,6.6,12.4,39.6,52,50.4,64.6-11.8-1.9-14.7-1.1-26.5.1-16.4,6.1-31.3,13.9-43.4,26.9,4.5,7.1,8.5,10,12,17.7-12.1,13.3-17.9,20-20,38-4.6-4.6-6.1-5.8-8.9-11.9-2.3-2.6-20.5-35.9-24.9-42.8-24-37.3-47.2-75.8-72.3-112.3,6.6-12.9,2.6-17.7,14.8-34.9l8.5-9.9Z"/>
    <path class="cls-18" d="M1042.3,1850.7c6.6-12.9,2.6-17.7,14.8-34.9,11.4,13.8,22.2,29.1,32.2,44,20.5,30.4,42.2,59.9,62.6,90.4,1.8,2.7-.6,7.3,3.5,11.9h1c4.5,7.1,8.5,10,12,17.7-12.1,13.3-17.9,20-20,38-4.6-4.6-6.1-5.8-8.9-11.9-2.3-2.6-20.5-35.9-24.9-42.8-24-37.3-47.2-75.8-72.3-112.3Z"/>
    <path class="cls-7" d="M1155.3,1962h1c4.5,7.1,8.5,10,12,17.7-12.1,13.3-17.9,20-20,38-4.6-4.6-6.1-5.8-8.9-11.9-8.6-23,.7-27.7,15.9-43.8Z"/>
    <path class="cls-19" d="M776.8,1001.3c49.5-22.6,101.3-62.7,150.5-83.5l2.7.6c18.7,12.1,36.3,22.6,45.5,44.7l2.1,3.8c4.4,15.6,5.1,20.1,5.8,36.6-5.8,3.9-16.6,8.4-18.6,12.8,2.6,4,2.6,3,8,5.2-15.5-1.4-20.8.5-32.8,10.6l-18.7,10.1c-10.6,6.2-47,30.3-55.2,32.2l-1.8-.7c-8.1,4.9-16,9.7-23.9,14.9.3-19.5,0-26.4-8.5-44l-2.3-3.8c-8.8-18.6-18.5-26.4-36.6-35.3-7.1-3.2-8.5-3.3-16.2-4.2Z"/>
    <path class="cls-18" d="M831.8,1044.8c30.1-17.8,61.2-34.5,91.2-52.6,11.5-6.9,46.4-20.5,52.4-29l2.1,3.8c4.4,15.6,5.1,20.1,5.8,36.6-5.8,3.9-16.6,8.4-18.6,12.8,2.6,4,2.6,3,8,5.2-15.5-1.4-20.8.5-32.8,10.6l-18.7,10.1c-10.6,6.2-47,30.3-55.2,32.2l-1.8-.7c-8.1,4.9-16,9.7-23.9,14.9.3-19.5,0-26.4-8.5-44Z"/>
    <path class="cls-19" d="M776.8,1001.3c7.7,1,9.1,1.1,16.2,4.2,18,8.9,27.7,16.7,36.6,35.3l2.3,3.8c8.5,17.5,8.8,24.4,8.5,44-5.2,4.4-7.1,6.4-13.4,9-38,26.3-104.4-58.6-74-82.9,8-6.2,14.5-9.8,23.9-13.5Z"/>
    <path class="cls-22" d="M793,1005.6c18,8.9,27.7,16.7,36.6,35.3-4.9,4.8-12.3,7-18.8,9.5-8.9-11.9-17.2-20.3-28.5-29.8,2.3-9.3,3.2-9.6,10.8-15Z"/>
    <path class="cls-7" d="M829.5,1040.9l2.3,3.8c8.5,17.5,8.8,24.4,8.5,44-5.2,4.4-7.1,6.4-13.4,9l-2.8-2.3c-1.3-17.3-5.3-29.9-13.4-45,6.5-2.5,13.9-4.8,18.8-9.5Z"/>
    <path class="cls-5" d="M776.8,1001.3c7.7,1,9.1,1.1,16.2,4.2-7.6,5.4-8.5,5.7-10.8,15-12.2-5.9-15.6-6.2-29.4-5.8,8-6.2,14.5-9.8,23.9-13.5Z"/>
    <path class="cls-19" d="M1199.7,1935.1c11.8-1.2,14.7-2,26.5-.1,7.5,7.3,10.8,11.2,17.2,19.6,14.8,25.9-13,47.6-33.4,59.6-19.8,11.7-41.2,16.3-61.6,3.5,2.1-18,7.9-24.7,20-38-3.5-7.7-7.5-10.6-12-17.7,12.1-13,27-20.8,43.4-26.9Z"/>
    <path class="cls-22" d="M1156.4,1962c12.1-13,27-20.8,43.4-26.9,1.2,9.7,1.3,12.1,6.9,20.5-17.3,7-23.9,12.8-38.3,24.1-3.5-7.7-7.5-10.6-12-17.7Z"/>
    <path class="cls-7" d="M1199.7,1935.1c11.8-1.2,14.7-2,26.5-.1,7.5,7.3,10.8,11.2,17.2,19.6-14-2.3-22.8-2.9-36.8,1-5.6-8.4-5.7-10.8-6.9-20.5Z"/>
    <path class="cls-2" d="M1015.7,1746.2v-3.7c0,0,5.3-2.4,5.3-2.4,4.3,4.9-.2,33.8,4.9,47.4.2,3.8.3,4.8,1.1,8.5,3.1-1.6,12.6-19.4,20-25.5,5.7-3.3,12.4-8.7,17.8-12.8l1.5-1.2c6.7,0,7.8-.9,13.6,3.3,3.8,2.7,8.1,5.5,9.3,10.3l-1.3,2.3c7.7,1.6,12.5,4.3,16.6,11.1-.8,2.5,0,1.6-1.9,3.2-15,2.3-26,9.2-37.1,19.3l-8.5,9.9c-12.2,17.2-8.2,22-14.8,34.9-6.1-6.3-10.1-14.3-14.5-22-.4,9.5-2.6,39.3.4,47.2-6.1.9-7,.8-13.1-.2,1.1-5.8,1.8-34.4-.5-40.3l-2-.2-4.5,6.1-.8,1.8-5.5,5-2.4-.2c-4.4-5.5-6.6-18.9-11.9-28.9l-1-1.8c5.4-4.9,7.2-10.3,10.1-17l-2.5-4.4c5-6.3,9.2.6,12.1-12.3,2.4,3.7,7.2,10.8,8.7,14.5,1.9-9.9,1-41.1.7-51.7Z"/>
    <path class="cls-22" d="M1088,1772.3c7.7,1.6,12.5,4.3,16.6,11.1-.8,2.5,0,1.6-1.9,3.2-15,2.3-26,9.2-37.1,19.3-7.7-3-11.3-3.1-14.1-11.1,13-13.4,18.7-17.3,36.4-22.5Z"/>
    <path class="cls-15" d="M1032.4,1831.3c4.8-17,7.1-23.8,19.2-36.5,2.7,8,6.4,8.1,14.1,11.1l-8.5,9.9c-12.2,17.2-8.2,22-14.8,34.9-2-7.8-5.6-12.6-9.9-19.4Z"/>
    <path class="cls-1" d="M996.6,1800.2c3.8,5.5,6.2,9.5,9.5,15.3,2.7,10.1,2.4,15.2,2,25.7l-.8,1.8-5.5,5-2.4-.2c-4.4-5.5-6.6-18.9-11.9-28.9l-1-1.8c5.4-4.9,7.2-10.3,10.1-17Z"/>
    <path class="cls-18" d="M1006.2,1783.4c2.4,3.7,7.2,10.8,8.7,14.5.3,7.7-.6,12.8-4.8,19.6l-4-2c-3.3-5.9-5.7-9.8-9.5-15.3l-2.5-4.4c5-6.3,9.2.6,12.1-12.3Z"/>
    <path class="cls-19" d="M768.5,1270.2c8.1-7,12.5-9.4,21.8-14.8,24.2,7,41.9,18.3,54.9,40.5-6.3,6.8-9.5,7.5-15.2,12.5,6.4,13.1,10.8,23,8.4,37.8-.3,1.8-.2,1.3.2,3.3-45.5,12-101.9-49.3-70.2-79.4Z"/>
    <path class="cls-3" d="M768.5,1270.2c8.1-7,12.5-9.4,21.8-14.8,24.2,7,41.9,18.3,54.9,40.5-6.3,6.8-9.5,7.5-15.2,12.5-14.6-21.7-34.6-37.5-61.5-38.2Z"/>
    <path class="cls-19" d="M793.8,1526.7c22.2,2.1,35.2,11.4,50.8,26.6l8,9.7,2.3,5.3c-4.7,2.4-14.1,6.5-17.2,10.4,5.9,11.2,7.5,15.4,9.5,27.9l.3,2.5c-7.8,4.1-13.3,6.5-21.4,9.8-11.4-1.9-17.6-3.4-27.3-10.2-17.5-12.1-46.8-39.5-29.7-62.6,5.9-7.2,16.5-15.2,24.7-19.4Z"/>
    <path class="cls-22" d="M793.8,1526.7c22.2,2.1,35.2,11.4,50.8,26.6l8,9.7,2.3,5.3c-4.7,2.4-14.1,6.5-17.2,10.4l-8.4-11.5c-12.8-14.3-36.3-29.2-57-20.9-1.9.8-1.1.4-3.2-.2,5.9-7.2,16.5-15.2,24.7-19.4Z"/>
    <path class="cls-5" d="M844.6,1553.2l8,9.7,2.3,5.3c-4.7,2.4-14.1,6.5-17.2,10.4l-8.4-11.5c8.2-4.2,9.4-6.6,15.3-13.9Z"/>
    <path class="cls-19" d="M786.5,1130.1c25.5,4.7,38.3,14.8,53.1,36.2.7,1,1.4,2.1,2.1,3.1-6.5,7.2-8.4,10.2-13.4,18.5,2.6,8.6,5.2,31.5,6.8,33.1l.5,1.2h-.4c-6.4,1.4-11.6,5.4-18.3,5.2-26.7-.6-78.2-59.4-51.5-81.8,5.5-7.1,13.3-11,21.1-15.5Z"/>
    <path class="cls-6" d="M786.5,1130.1c25.5,4.7,38.3,14.8,53.1,36.2.7,1,1.4,2.1,2.1,3.1-6.5,7.2-8.4,10.2-13.4,18.5-1.4-2.6-2.9-5.2-4.5-7.7-8.4-13.2-23.8-30.6-40.3-33.2-6.3-1-11.9.2-18.1-1.5,5.5-7.1,13.3-11,21.1-15.5Z"/>
    <path class="cls-19" d="M791.4,1661.6c24.6,4.8,44.9,11.7,59.6,33.7-5.7,6.1-8.9,8.3-15.8,13.3,12.1,21.3,6.2,18,10.3,32.5-25.8,32.2-102.4-31.5-74.2-63.7,5.3-4.7,14.4-11.2,20.2-15.7Z"/>
    <path class="cls-22" d="M791.4,1661.6c24.6,4.8,44.9,11.7,59.6,33.7-5.7,6.1-8.9,8.3-15.8,13.3-16.5-21.1-36.1-36.4-64-31.3,5.3-4.7,14.4-11.2,20.2-15.7Z"/>
    <path class="cls-19" d="M927.2,917.8c6.9-4.1,15.5-8.7,23.2-11,12.1-3.9,25.2-2.9,36.6,2.9,2.7,5.8,5,12.3,9.8,16.4,5,4.7,9.2,14.8,11.3,21.2,1.9,5.6,1.6,8,5.5,11.4,2.7-3.6,3.1-15.2,3.5-20.4.9,9.6,2.7,42.2,2,51.6l-2.8-1.2c-.1-5.2.8-6.5-2.1-9.3-9.1,2.9-16.3,15.1-26.2,21.1l-4.7,2.9c-.7-16.5-1.4-21-5.8-36.6l-2.1-3.8c-9.2-22.1-26.8-32.7-45.5-44.7l-2.7-.6Z"/>
    <path class="cls-22" d="M930,918.4l22.1-2.3c20.2,10.8,28.6,19.3,39.3,39.7-5.2,5.2-7.2,7.5-13.7,11.1l-2.1-3.8c-9.2-22.1-26.8-32.7-45.5-44.7Z"/>
    <path class="cls-7" d="M991.3,955.8l4.8,15c.4,13.5,1.1,16.4-6.3,27.3l-1,1.6c-.2.3-.4.6-.6.9l-4.7,2.9c-.7-16.5-1.4-21-5.8-36.6,6.5-3.6,8.5-5.9,13.7-11.1Z"/>
    <path class="cls-8" d="M1008,947.4c1.9,5.6,1.6,8,5.5,11.4,2.7-3.6,3.1-15.2,3.5-20.4.9,9.6,2.7,42.2,2,51.6l-2.8-1.2c-.1-5.2.8-6.5-2.1-9.3-9.1,2.9-16.3,15.1-26.2,21.1.2-.3.4-.6.6-.9l1-1.6c7.4-10.9,6.7-13.9,6.3-27.3,5.1,5.7.4,9.2,2.9,14.1,9.5-6.4,8.5-26.8,9.1-37.5Z"/>
    <path class="cls-19" d="M1081.9,1250.9c6.4,4.9,15.2,9.5,18.5,15.8,6.7,3.6,8.5,4.6,14.2,9.5-21.4,8.7-32.3,15.8-45.6,35.3l-.6,1.1c-4.2,5.7-5.3,8.1-8.2,14.4-2.7,6-2.7,16.6-7.4,19.1l-3.1-2.3c-9.2-8.5-14.2-15.4-20.8-25.9,1.4-5.3,1-6.1,0-11.8,5.1-10.4,10.4-24.9,19.8-31.7,3.4-2.6,9.2-8.7,9.9-12.9,6.9-6.1,14.6-8,23.3-10.7Z"/>
    <path class="cls-22" d="M1100.4,1266.7c6.7,3.6,8.5,4.6,14.2,9.5-21.4,8.7-32.3,15.8-45.6,35.3-5.6-4.8-7.9-6.3-11-13,10.5-16.2,23.8-27,42.4-31.8Z"/>
    <path class="cls-16" d="M1058,1298.6c3.2,6.7,5.5,8.2,11,13l-.6,1.1c-4.2,5.7-5.3,8.1-8.2,14.4-2.7,6-2.7,16.6-7.4,19.1l-3.1-2.3c-8.2-18.5-2.3-29.5,8.3-45.3Z"/>
    <path class="cls-19" d="M1062.1,910.4c26.1-10.1,37-6.8,60,8.8-6.5,0-5.3-.9-10.3,1.9-17.5,11.2-35,21.2-42.6,42.9l-2.3,3.1c-5.9-.6-9.2-.6-14.9-2.7-3.1,11.4-8.2,23.6-.2,33.8-14.8-7.2-17.1-10.7-22.9-25.3,1.6-4.5,1.1-5.2,0-10.1,5.9-21.1,8.6-26.1,23-42.1l10.1-10.4Z"/>
    <path class="cls-22" d="M1051.9,964.5c9.8-27.5,28.5-49.2,59.8-43.4-17.5,11.2-35,21.2-42.6,42.9l-2.3,3.1c-5.9-.6-9.2-.6-14.9-2.7Z"/>
    <path class="cls-4" d="M1011.5,880.4c8,2,11.4,3.1,19.5,2.9l-1,1.7c4.9,13.4,19,21.5,32,25.4l-10.1,10.4c-13.2-7.9-15.8-11.6-24.5-24.4,0,9,0,17.9-.7,26.9-1.4-6-1.2-22.7-1.3-29.8l-4.5.2c-2,2.2-2.4,2.4-4,5l.2,2.7c-6.4,9.4-12.2,12.3-21.3,18.9-.8.6.4,4.9.7,5.8-4.8-4.1-7.1-10.6-9.8-16.4,13.9-2.8,20.7-10.6,26.6-23.2l-2-6.1Z"/>
    <path class="cls-4" d="M1016.3,988.8l2.8,1.2c2,12.7,3.9,27.8-2.1,39.3,0-3.9,0-7.9-.1-11.8-3.1,2.4-3.7,6.5-6.7,10.4-4.3,5.6-12.3,10.8-14.3,17l-1.8-.6c-4.1-4.6-4.6-5.3-6.7-11.1,18.2-19.7,20-17.6,29-44.3Z"/>
    <path class="cls-4" d="M1026.6,1255.2c-4.1-15-2.2-22.7,0-38.1,1.9,13.6,20.3,39.7,32,44.5-.8,4.2-6.6,10.3-9.9,12.9-.2-6.1-14.6-22.1-19.7-28.6l-1.1.3-1.3,9Z"/>
  </g>
  <g id="bottom">
    <path class="cls-19" d="M1057.9,1980.8c6.3,40.7,14,80.9,19.8,121,7.4,35.2,11.9,76.4,16.1,112.2,13.6,109.4,17.3,219.9,11.1,330-1.2,18.1-4.8,61.3-11.3,77.6-12.3,6.1-22.9,11.4-36.6,4.8-3.1.5-7.2,1-10.1,1.9-8.5,16.7-40.4,12.9-55.3,11-2.3-5.3,4-37.3,5.3-45.3-11.5,9.8-11.4,23.6-17.9,30.5-3.6,9.1-6.9,15-17.9,15-19.2,0-50.8-6.3-64.2-19.9.2-8.1,5.1-9.8,2.5-17-2.2,2.4-5,5.6-7.9,7-15.1,7.2-28.9-9.4-40.3-16.8-2.9-1.9-9.9-4-13.3-5.1,13-19.2,23-44.1,30.4-66-20.9,16.8-23.4,41.4-46.3,56.9-10.7-7.1-16.7-10.1-23.4-21.3l-3-6c1-2.1,43.4-38.7,49.6-44.8,2.6-4.6,10.5-15,14.2-20.9,9.6-15.2,18.4-30.9,26.3-47,57.7-116.2,81.8-243.3,98.5-370.8,2.4-18.2,4.3-37.1,7.5-55.1,2.9-2.5,3.1-3.7,4.6-7.1,3.8-1.8,19.1-2.5,24-2.9h11.2c6.2.4,12.4.8,18.6.3l1.3-1.4,5.1.4.4-8.6,1-12.7Z"/>
    <path class="cls-19" d="M1072.4,2133.4c1.8-15.6-.3-24.8.8-38.8l1.6.9c.5,2.6,1.6,4,3,6.2,7.4,35.2,11.9,76.4,16.1,112.2,13.6,109.4,17.3,219.9,11.1,330-1.2,18.1-4.8,61.3-11.3,77.6-12.3,6.1-22.9,11.4-36.6,4.8,2.1-7.1,7.8-41.2,9.3-50.3,23.8-142.7,17.7-299,6.1-442.6Z"/>
    <path class="cls-5" d="M845.2,2506.5c9-5.6,29.9-30.8,37.1-40.2,74.9-97.9,98.8-235.1,116.2-354.4,2.4-16.3,8.9-97.4,13.5-105.7h1.9c3.2,9.3-10.6,118.8-13.2,136.4-14.6,102.4-36.6,207.9-85.9,299.9-10.7,19.9-26.3,40.4-40.4,58.1-.1,9.2-1.8,13.4-6.2,21-20.9,16.8-23.4,41.4-46.3,56.9-10.7-7.1-16.7-10.1-23.4-21.3l-3-6c1-2.1,43.4-38.7,49.6-44.8Z"/>
    <path class="cls-18" d="M874.5,2500.6c-.1,9.2-1.8,13.4-6.2,21-20.9,16.8-23.4,41.4-46.3,56.9-10.7-7.1-16.7-10.1-23.4-21.3,3.3,2.9,4,4,8,5.1,19.4-9.5,53.8-44.3,67.9-61.8Z"/>
    <path class="cls-21" d="M1057.9,1980.8c6.3,40.7,14,80.9,19.8,121-1.4-2.2-2.5-3.6-3-6.2l-1.6-.9c-1,14,1.1,23.2-.8,38.8,11.6,143.6,17.8,299.9-6.1,442.6-1.5,9.1-7.1,43.2-9.3,50.3-3.1.5-7.2,1-10.1,1.9-1.5-3.9,9.9-49.4,11.4-57.5,8.4-48.5,13.5-97.5,15.5-146.6,5.4-108.9-1.6-215-11.5-323.5-3-32.4-9.7-65.6-12.2-97.5l1.3-1.4,5.1.4.4-8.6,1-12.7Z"/>
    <path class="cls-18" d="M1057.9,1980.8c6.3,40.7,14,80.9,19.8,121-1.4-2.2-2.5-3.6-3-6.2l-1.6-.9c-1,14,1.1,23.2-.8,38.8-4.7-45.2-10.1-86.3-15.9-131.4l.4-8.6,1-12.7Z"/>
    <path class="cls-4" d="M1000.9,2570c15-39,24.9-67.6,31.2-109.4,1.7-11.1,4.7-19.3,5.3-31.4l1.4-.5c2.6,55.1-8,143.9-34.9,193.1-2.9,5.4-8.8,7.3-12.3,17.5-2.3-5.3,4-37.3,5.3-45.3l2.4-3.3,4.1-.5c6.7-6.7,5.6-7.5,3.8-15.8l.2.2-2.4-1.6-1.9.4-2.2-3.4Z"/>
    <path class="cls-8" d="M1000.9,2570l2.2,3.4,1.9-.4,2.4,1.6-.2-.2c1.9,8.3,3,9.2-3.8,15.8l-4.1.5-2.4,3.3c-11.5,9.8-11.4,23.6-17.9,30.5-.6-5.5,18.3-45.5,21.9-54.5Z"/>
    <path class="cls-8" d="M899.4,2602.6c2-4.6,9-11.3,12.7-15.2h1.6c0,0-2.2,5.4-2.2,5.4,2-.3,2.5-1.4,4.3-3.1-.2,3.4-16,26.3-18.9,29.9.2-8.1,5.1-9.8,2.5-17Z"/>
    <path class="cls-22" d="M1029.5,2004.4l4.2,1.9c.7,1.6,1.6,3.6,1.6,5.5,4.3,181.7.9,367.9-67.8,539.1-10.4,25.8-22.4,61-38.6,82.4-3.8-1.6-4.1-1.7-7-4.4,1.8-6.9,18.7-35.8,23-46.1,15.7-37.8,28.4-73.9,40.3-112.9,48.2-157.3,43.2-304.7,44.2-465.4Z"/>
    <path class="cls-18" d="M921.1,2492.6l1.3,2.6c-2.8,10.2-27.5,51.7-35.9,57.1l-2-3.7c0-2,32.6-49.2,36.5-55.9Z"/>
    <path class="cls-8" d="M992.2,1907.9c-2.3-16.5,7.4-28,22.9-32.2,6.1,1,7,1.1,13.1.2,16.3,3.7,27.5,14.9,23.5,33-.6,2.6-3,8.2-4.8,9.9-2.4,3.7-4.7,7.3-7.1,10.9,7,4.4,15.2,6.1,16.5,13.4,2,11.7.8,23.9,2.1,35.8l-.4,2-1,12.7-.4,8.6-5.1-.4-1.3,1.4c-6.2.5-12.4,0-18.6-.2h-11.2c-4.9.3-20.1,1-24,2.8-1.5,3.5-1.7,4.6-4.6,7.1-6.2-14.5-1.6-53-1.4-71.3,4.6-3.9,7.6-6,12.6-9.4,2.6-5.8-3.9-6.9-6.5-13.1-1.7-4-2.9-7-4.2-11.2Z"/>
    <path class="cls-19" d="M992.2,1907.9c-2.3-16.5,7.4-28,22.9-32.2,6.1,1,7,1.1,13.1.2,16.3,3.7,27.5,14.9,23.5,33-.6,2.6-3,8.2-4.8,9.9-20.4,14.6-16.8,16.2-43.3,6.7-3.9-6.6-6.7-11.7-11.4-17.7Z"/>
    <path class="cls-19" d="M1035.8,1968c5.5.4,9.3.3,14.4,2.4,2.7,3.4,5.5,5.3,8.1,8.4l-.4,2-1,12.7-.4,8.6-5.1-.4-1.3,1.4c-6.2.5-12.4,0-18.6-.2h-11.2c-4.9.3-20.1,1-24,2.8l-3.5-1.5c-1.9-4.7-.2-14.8-.7-22.2v-1.5c2.5-5.5,3.7-5.3,2.3-10,5.6-1,15.3-1.6,21.3-2.1l20.2-.3Z"/>
    <path class="cls-22" d="M1008.8,1978.3c7.9-.2,18-.8,25.7-.3-.6,6.9-1.1,18.6-2.9,24.9h-11.2c-4.9.3-20.1,1-24,2.8l-3.5-1.5c-1.9-4.7-.2-14.8-.7-22.2v-1.5c6-1.1,10.5-1.6,16.7-2.2Z"/>
    <path class="cls-7" d="M992,1980.5c6.1-1.1,10.7-1.6,16.8-2.2.4,7.5-1.2,17.6,1.3,22.3,3.4,2.5,5.8,2,10.3,2.1-4.9.4-20.1,1.1-24,2.9l-3.5-1.5c-1.9-4.7-.2-14.8-.7-22.2v-1.5Z"/>
    <path class="cls-7" d="M1034.4,1978l7.8.4c7.2,1.2,8.8.3,13.6,4.5,1,4.6,1.1,5.8,1.2,10.5l-.4,8.6-5.1-.4-1.3,1.4c-6.2.5-12.4,0-18.6-.2,1.8-6.3,2.3-18,2.9-24.9Z"/>
    <path class="cls-5" d="M1034.4,1978l7.8.4c-.2,7-1.1,13.7,1.8,20,3.7,3.3,2.2,2.3,7.4,3.3l-1.3,1.4c-6.2.5-12.4,0-18.6-.2,1.8-6.3,2.3-18,2.9-24.9Z"/>
    <path class="cls-1" d="M1007.7,1936.2c31.4-5.1,50.1-3.4,45.9,32.9l-3.3,1.3c-5.1-2.1-8.9-2-14.4-2.4l-20.2.3c-1.6-10-.1-21.8.7-32h-8.6Z"/>
    <path class="cls-22" d="M1016.4,1936.3c7,0,7.6-1.1,12.8,2.2,4.8,7.3,5.6,20.4,6.7,29.5l-20.2.3c-1.6-10-.1-21.8.7-32Z"/>
    <path class="cls-10" d="M994.4,1970.5c-.7-16-4.8-29.1,13.3-34.3h8.6c-.8,10.4-2.3,22.2-.7,32.1-6,.5-15.6,1.1-21.3,2.1Z"/>
    <path class="cls-18" d="M1021.7,1876.5l-2.6-.2c-.6,0-4,0-4-.8l-1.6-989.1c0-.8-2.7-6.1-2-6.1h20.8c.8,0-2.2,3.9-2.2,4.6l-1.9,990.9c-.9.4-5.6.6-6.5.6Z"/>
  </g>
  <g id="top">
    <path class="cls-11" d="M1011.7,289.6c7.9-1.8,12.9-1.7,20.9.1,12.3,6.5,17.9,15.1,19.8,29.3l-.6,2.2c-1.5,11.3-2.2,14.7-9.9,23.3,3.7,11.5,11.5,4.7,11.5,28.2l-1.6,4.9c31.2.6,62.4.7,93.6.2,18.9,15.3,59.1,58.3,77.8,76.8,15,14.8,59,57.3,70.5,72.2l-.3,208.9-94.9,94c-10.9,10.8-41,41.5-52.4,50-13.2,0-26.6.3-39.8-.4-21.7,1-54.9-.9-74.2,1.3l-1.2,2.9c-8.1.2-11.6-.9-19.5-2.9-30.3-2.6-79.9-.3-112.1-.8-7.6-5-49.3-46.8-58-55.6-29.2-29.7-62.1-59-90.9-88.7-2.4-64.7-.2-143.1,0-208.8,12.6-14.6,35.8-36.6,50-50.9,32.5-32.9,65.2-65.6,98.3-97.9,31.8-.1,63.6,0,95.4.4-3.3-8.1-1.5-7.5-1.6-16.2,25-6.5,8.5-9.8,7.4-16.3-7.8-10.5-5.9-6.1-9.2-19.9v-11.4c3.4-15,7.8-17.6,20.8-24.8Z"/>
    <path class="cls-19" d="M1000.6,392.9l13.7.6.3,8.2c-.2,9.3-1.5,11.6,6.5,17.3,12.2-.9,4.8-19.5,11.5-26.2,36.2.2,72.5.3,108.7.2l15.1,14.6c42.1,38.7,81.9,84.7,122.6,123-1.6,65.2-.1,132-1,197.5-26,26.4-52.3,52.6-78.8,78.5-8.7,8.4-25.7,25.8-34.5,33.1-5.8,7.2-16.9,17.6-23.8,24.4-78.2.3-159.2,1.3-237.2.3-3.1-3.2-14.1-14-16-17.1-40.8-39.5-81.2-79.4-121.4-119.6v-197.3c46.2-45.3,91.8-91.1,136.8-137.5h97.5Z"/>
    <path class="cls-22" d="M1000.6,392.9l13.7.6.3,8.2-3.2-.9c-5.3-2.6-94-1.4-105.5-.5-42.3,42.1-90.1,92.9-133.1,132.7l-.2,192.2c31.6,32,71.1,68.1,100.9,100,4.4,6.2,12.7,12.9,15.3,18.3l-1.1,3.8c-40.8-39.5-81.2-79.4-121.4-119.6v-197.3c46.2-45.3,91.8-91.1,136.8-137.5h97.5Z"/>
    <path class="cls-22" d="M1156.4,407.6c42.1,38.7,81.9,84.7,122.6,123-1.6,65.2-.1,132-1,197.5-26,26.4-52.3,52.6-78.8,78.5-8.7,8.4-25.7,25.8-34.5,33.1h-2.1c-4.3,3.7-6.3,5.1-11,8.1,5.4-8.9,21.8-21.2,29.2-31.7,4.9-6.1,22.7-23,29.6-29.8l61.9-61.8c.8-60.5.9-131.9-1.3-191.8-39.8-37.2-80.1-82.9-120.1-121.4l5.5-3.6Z"/>
    <path class="cls-22" d="M1137,857.1c9.1-9,34.8-35.3,43.6-40.9-7.4,10.4-23.8,22.8-29.2,31.7,4.7-3.1,6.7-4.5,11-8.3h2.1c-5.8,7.3-16.9,17.7-23.8,24.5-78.2.3-159.2,1.3-237.2.3-3.1-3.2-14.1-14-16-17.1l1.1-3.8c-2.6-5.4-10.9-12.1-15.3-18.3,8.6,5.1,26.1,24.1,33.5,31.9,76.7.7,153.4.7,230.1,0Z"/>
    <path class="cls-22" d="M1032.6,392.9c36.2.2,72.5.3,108.7.2s0,0,0,0l15.1,14.6-5.5,3.6-11.9-11c-5.1-.3-10.3-.5-15.4-.7-8.8-.3-88.1-1.7-89.5,1.1-.8,5.4-.5,9.2-1.8,14.3s-2.7,4.7-5.3,5.5-1.9.6-2.9.7c-10.4,1.8-15.1-5.8-13.7-16l.3-4.8c.5-.9,1.6,0,2.5.2l1,.3c.3,0,.4,1,.4,1.3-.2,8.2-1.1,10.8,4.8,15.6s2.8,1.3,4.2.7c8.6-3.2,2.8-19.5,8.9-25.7Z"/>
    <path class="cls-20" d="M1007.3,647.6c52-23.7,113.1-53.1,167.9-17.9,7.6,12.3,9.4,24.1,4.6,37.9-19.6,56.3-40.5,112.6-109.8,102.7,9-10.7,22-22.5,29.7-32.4-29.2,6.6-58.9,11.8-88.2,17.6-14.1,2.8-20.8-24.7-22-34.5-3.8-26.2.9-61.8,13.9-85.1,4.2,4.5,3,4.2,3.9,11.6Z"/>
    <path class="cls-19" d="M1068.9,640.2c14.1-3.9,50.2-14.9,61.1-4.4,12.9,15.7-14,78-27.5,82.7l-2.6-.9c-1.3-9.5,3.5-13.9,1.1-19.7-4.8,1.2-9.5,6-13,9.7-5.8,5-14.5,10.1-21.9,11.9l-1.1-1.6c2.2-8.7,8.2-13.8,11.2-21,2.3-5.5-4.3-4-.2-14.6,12.1,2.8,27-5.4,29.2-17.3-11.9-11.5-13.2-12.1-25.4-2.8l-1.7-.9c0-11.6,1.2-12.3-7.8-19.9l-1.5-1.2Z"/>
    <path class="cls-19" d="M1017.2,661.9c9-4.3,22.1-11.1,31.2-14.3-.8,7.6-1.3,20.1-5.3,26.2l-5.5,3.4c-8.9,4-17.2,7-19,16.9,1.3,5.5,4.9,7.9,9.2,11.9,7.4-6.1,14.2-9.6,22.5-14.2-4.6,11.5-16.4,42.9-32.3,35.1-9-11.4-13.8-53.9-.8-65Z"/>
    <path class="cls-20" d="M948.2,552.9c13.2-5.6,32-5,39.4,9.4,8.8,17.1-32.9,63.1-22.7,74.8,4.4.2,6.4.3,10.7,1.1l2.4,2.6c-2.1,11.4-11.2,11.2-14.8,21-.7,14.7-1.7,31.2-1.5,45.8.3,13.4,1.1,36.1,3.1,49-.4,7.5-2.4,14.7-6,21.3-2.8,5.1-5,5.5-9.6,6.7-25.3-4.4-24.2-46.7-23.6-65.5l1.7-35c-15.5,17.2-20.1,21.6-39.6,33.9-7.9,3.8-27.7,10.4-35,4.3.2-.8,66.1-92.8,73.4-105.3-30.3,20.4-59.7,45.9-81.6.9,10.7-7.3,33.6-15.8,47.1-23.8,22.3-13.2,36.2-26.5,56.5-41.3Z"/>
    <path class="cls-20" d="M936.6,505.5c.1-1.2,1-7.7.9-8.4.3-7.1-15.9-16.3-7.7-21.2,8.8-5.4,21.8-4.6,31.6-3.1,24.6,3.7,43.5,28.3,15,44.9-12.5,7.2-27.4,11.4-41.2,15.6l-17,5.5.6-5.2c7-5.6,14.8-19.5,17.8-28Z"/>
    <path class="cls-19" d="M918.3,538.8l17-5.5,2.7,5.4c-3.7,6.3-13.5,6.1-19.8,5-.9-3.1-.9-1.6.1-4.9Z"/>
    <path class="cls-20" d="M1003.4,636c2.9-5.7,4.3-10,9.7-13.3l3.1.6c-.5,6.9-7.8,8.5-8.8,24.3-.9-7.4.3-7.1-3.9-11.6Z"/>
    <path class="cls-20" d="M1013.1,505.1c4.7-10.8,94.6-54,110.7-13.9-2.2,11.2-22.9,13.5-33.4,18.6-23.9,11.7-44.8,29.9-63.9,48.1,17.9-9.9,50.5-27.6,70.4-32.2,38.8,12.4,33.8,26.8,7.7,50.7,3.9,5.5,6.3,8.2,7.8,14.9-2,8.1-6.6,7.5-14.2,8l-3.7-.2c-33.2-2.3-68.8,21.1-78.8,21.3l-1.3-1.4,1.6-5.6c-.5-1.3-1.2-2.8-1.6-4.1-2.7-11,54.8-32.2,63.8-50.6,1-2.1.7-2.2,0-4.4-7.4-2-54.8,15.2-62.3,20-1.4-13.1.4-16.6,7.1-27.4,8.6-12.9,16.1-21.8,26.1-33.7-6.9-1.1-15-1.6-22-2.2-6.8-1.4-8-2.2-13.9-5.7Z"/>
    <path class="cls-9" d="M1011.3,388.1c-.3-2.7-10.1-6.6-12.8-6.4h0c-2.2,0-4.3-1.3-5.1-3.4-1.9-4.9-2.4-7.4-2.5-13.3s.4-2.4,1.1-3.3c3.1-4.1,5.2-6.5,8.4-9.7s2-4.7.5-6.8c-5.5-7.5-7.7-11.5-9.4-21.9s0-1.4,0-2l.6-2.5c3.3-14.7,6.8-18.1,19.3-25s1-.5,1.5-.6c7.2-1.6,12.1-1.4,19.4.1s1,.3,1.5.5c11.7,6.3,18.2,14.9,19.5,28.2s-.7,4.3-.7,4.7l-.7,6.8c0,0,0,.2-.1.3-4.7,7.1-3.5,5-6.5,8.2s-2.9,7.2-.9,10.1c3.9,5.6,9.2,2.6,9.6,23.3,0,.6,0,1.2-.2,1.7l-.5,1.5c-.5,1.6-1.8,2.9-3.5,3.4-3.4,1-6.5,2-10,2.8s-2.1.9-2.8,1.8c-2.6,3.2-2.7,3-5.7,8s0,0,0,0c-3.3,6.9.9,20.3-6.8,23.6s-4.6.3-6.2-.9c-3.6-2.7-3.8-4-3.8-11.4s0,0,0,0l.5-3.7s0,0,0-.1c-.1-2.7-.9-5.4-1.8-8.1l-1.2-3.6"/>
    <path class="cls-7" d="M1023.4,287.8c0,0,.1,0,.2,0,6.2.4,12.2,2.7,17.1,6.6,7.7,6.1,12.3,14.1,13.7,25.3.7,5.4-1.3,13.5-4.4,18-18.3,26.1-52.1,18.6-57.6-5.4s-2.6-7.6-2-16.7v-.6c2.6-10.9,5.9-15.5,11.6-20.2,5.1-4.2,14.7-7.5,21.3-7.1Z"/>
    <path class="cls-13" d="M1022.1,235.1l.5-1.9c3.5-15.4,5.3-43,6.7-59.7l8.3-96.7c.9-10.7-1.1-29.6,5.6-36.8,4.4-2.3,4.9-2.4,9.8-2.1,2.8,3,2.9,3.2,2.3,8.5-8.1,80.9-14.4,162.4-22.7,243.3-8-1.8-13-2-20.9-.1l-17.5-193.9c-.8-8.6-5.6-49.1-4.5-53.6,4.2-4.9,6.6-4.4,12.9-3.1,4.4,5.6,15.3,172.7,19.4,196.1Z"/>
  </g>
</svg>